<?xml version="1.0" encoding="utf-8"?>
<!-- Generator: Adobe Illustrator 24.1.3, SVG Export Plug-In . SVG Version: 6.00 Build 0)  -->
<svg version="1.1" id="Layer_1" xmlns:xodm="http://www.corel.com/coreldraw/odm/2003"
	 xmlns="http://www.w3.org/2000/svg" xmlns:xlink="http://www.w3.org/1999/xlink" x="0px" y="0px" viewBox="0 0 530.4 580"
	 style="enable-background:new 0 0 530.4 580;" xml:space="preserve">
<style type="text/css">
	.st0{fill-rule:evenodd;clip-rule:evenodd;fill:#9FEF00;}
	.st1{fill-rule:evenodd;clip-rule:evenodd;fill:#111927;}
	.st2{fill:#A3B1CC;}
	.st3{fill-rule:evenodd;clip-rule:evenodd;fill:#649600;}
	.st4{fill:#9FEF00;}
	.st5{fill-rule:evenodd;clip-rule:evenodd;fill:#27313D;}
	.st6{fill:#FFFFFF;}
	.st7{fill-rule:evenodd;clip-rule:evenodd;fill:#4F7023;}
	.st8{fill-rule:evenodd;clip-rule:evenodd;fill:#A6B2CC;}
	.st9{fill-rule:evenodd;clip-rule:evenodd;fill:#303F61;}
	.st10{fill-rule:evenodd;clip-rule:evenodd;fill:#25344F;}
	.st11{fill-rule:evenodd;clip-rule:evenodd;fill:#68748E;}
	.st12{fill-rule:evenodd;clip-rule:evenodd;fill:#80B33E;}
	.st13{fill-rule:evenodd;clip-rule:evenodd;fill:#FFFFFF;}
	.st14{fill-rule:evenodd;clip-rule:evenodd;fill:#5F6B7F;}
	.st15{fill-rule:evenodd;clip-rule:evenodd;fill:#D3D9E6;}
	.st16{fill-rule:evenodd;clip-rule:evenodd;fill:#FFAF02;}
	.st17{fill:#68748E;}
	.st18{fill-rule:evenodd;clip-rule:evenodd;fill:#B87F05;}
	.st19{fill:none;}
	.st20{fill-rule:evenodd;clip-rule:evenodd;fill:#617090;}
	.st21{fill-rule:evenodd;clip-rule:evenodd;fill:#A5B1CC;}
	.st22{fill:#A5B1CC;}
	.st23{fill:#303F61;}
</style>
<g id="Layer_x0020_1">
	<g id="_2003363916448">
		<path class="st0" d="M10.2,222.9c-1.1-1.9-2-4-2.7-6.1c-0.6-1.9-1-3.8-1.4-5.8c-1.4-2.2-2.3-4.5-2.9-7.2c-0.1-0.8-0.3-1.7-0.3-2.6
			c-1.3-3.1-2.2-6.1-2.6-9.5c-0.3-2.9-0.5-6-0.2-8.9c0.8-9.7,7.1-17.8,17.3-18.2c2.8-0.1,5.6,0.4,8.1,1.5c0.1-1.5,0.2-2.9,0.4-4.4
			c1.5-9.7,8.3-17.3,18.6-17.1c5.2,0.1,10.2,2.6,13.4,6.6c0.8,1,1.5,2.1,2.2,3.2c0.3-2,0.8-4,1.5-6c0.6-1.7,1.3-3.4,2.2-4.9
			c1-1.9,2.4-3.5,4-4.9c0.4-1.3,1-2.6,1.7-3.8c2.3-3.6,5.6-5.7,9.3-7.7c4.3-2.2,8.6-4.3,12.9-6.5l23.2-12.4l1.9-5.8l0.1-0.3
			c1.5-3.8,2.6-7.7,5.8-10.4c3.2-2.9,7.8-3.6,11.8-4.9l0.1-0.1l0.1-0.1c2.4-0.7,4.7-1.4,7-2.2c-0.1-0.9-0.3-1.8-0.3-2.7
			c0-6.6,4.6-12.2,10.9-13.6c0.4-1.6,1-3.1,1.9-4.4v-3.3v-0.2v-0.3v-0.3v-0.3V59l0.1-0.3l0.1-0.3l0.1-0.3l0.1-0.3l0.1-0.3l0.1-0.3
			l0.1-0.2l0.1-0.3l0.1-0.3l0.1-0.3l0.1-0.2l0.1-0.3l0.1-0.3l0.1-0.3l0.1-0.3l0.1-0.3l0.1-0.2l0.1-0.3l0.2-0.3l0.1-0.1l0.2-0.3
			l0.1-0.2l0.1-0.2l0.2-0.2l0.2-0.2l0.2-0.2l0.2-0.2l0.1-0.1c-3-2.6-4.9-6.4-4.9-10.7c0-7.7,6.3-14.1,14.1-14.1c0.4,0,0.8,0,1.2,0.1
			l0.1-0.2l0.1-0.2l0.2-0.2l0.2-0.3l0.1-0.1l0.3-0.3l0.1-0.1l0.2-0.2l0.2-0.2l0.2-0.1l0.2-0.2l0.2-0.2l0.2-0.1l0.2-0.1l0.3-0.2
			l0.3-0.2l0.2-0.1l0.2-0.1l0.3-0.1l0.3-0.1l0.3-0.1l0.3-0.1l0.3-0.1l0.3-0.1l0.3-0.1l0.3-0.1l0.3-0.1l0.3-0.1l0.3-0.1l0.3-0.1
			l0.3-0.1l0.3-0.1l0.3-0.1l0.3-0.1h0.3h0.3h0.3h0.3h0.3h2.9c2.1-2.9,5-5.2,8.7-6.3c4.6-1.5,9.7-1,14.1,1.2c2.9-0.5,6.1-0.7,8.5-0.8
			c5.6-0.3,9.7,0.5,14.6,1.7c2.1-1.3,4.3-2.9,6.2-4.2C237.7,8,246.3,4,253.6,2.5c7.2-1.5,15.9-2.4,23.3-2.2
			c7.5-0.1,16.1,0.8,23.3,2.2C307.5,4,316,8.1,321,14.1c1.9,1.4,4.2,3,6.2,4.2c4.9-1.2,9-1.9,14.6-1.7c2.4,0.1,5.6,0.3,8.5,0.8
			c4.3-2.1,9.5-2.6,14.1-1.2c3.7,1.1,6.6,3.4,8.7,6.3h3h0.1h0.3h0.3h0.3h0.3l0.3,0.1l0.3,0.1l0.3,0.1l0.3,0.1l0.3,0.1l0.3,0.1
			l0.3,0.1l0.3,0.1l0.3,0.1l0.3,0.1l0.3,0.1l0.3,0.1l0.3,0.1l0.2,0.1l0.3,0.1l0.3,0.1l0.2,0.1l0.2,0.1l0.3,0.2l0.3,0.2l0.2,0.1
			l0.2,0.1l0.2,0.2l0.2,0.1l0.2,0.1l0.2,0.2l0.2,0.2l0.1,0.1l0.2,0.2l0.3,0.3l0.1,0.1l0.2,0.2l0.1,0.2l0.1,0.2v0.1
			c0.4,0,0.8-0.1,1.2-0.1c7.7,0,14.1,6.3,14.1,14.1c0,4.3-1.9,8.1-4.9,10.7l0.1,0.1l0.2,0.2l0.2,0.2l0.2,0.2l0.2,0.2l0.1,0.2
			l0.1,0.2l0.2,0.3l0.1,0.2l0.1,0.2l0.1,0.2l0.1,0.3l0.1,0.3l0.1,0.3l0.1,0.3l0.1,0.3l0.1,0.3l0.1,0.3l0.1,0.3l0.1,0.3l0.1,0.3
			l0.1,0.2l0.1,0.3l0.1,0.3l0.1,0.3l0.1,0.3l0.1,0.3l0.1,0.3v0.3v0.3V60v0.3v0.2v3.3c0.9,1.3,1.5,2.9,1.9,4.4
			c6.2,1.5,10.9,7,10.9,13.6c0,0.9-0.1,1.8-0.3,2.6c2.4,0.7,4.8,1.5,7.2,2.2l0.1,0.1l0.1,0.1c4,1.3,8.6,2.2,11.8,4.9
			c3.2,2.8,4.4,6.6,5.8,10.4l0.1,0.3l1.9,5.8l23.2,12.4c4.2,2.3,8.6,4.3,12.9,6.5c3.7,1.9,7,4,9.3,7.7c3.8,6.1,2.8,15.5,2.8,22.3
			v64.5c4.4,5.3,9.4,11.6,14.4,15.5c2.2,1.7,4.3,3.3,6.5,4.9c1.4,1,2.7,1.9,3.9,3.1c0.5,0.5,0.9,1,1.3,1.5
			c3.2,4.2,5.1,12.4,5.8,17.6c0.2,1.7,0.4,3.8,0.5,5.8c4.3,3.1,9,7,10.3,10.9c1,3.2,0.3,8.1-0.1,11.5c-0.6,4.8-1.3,9.6-1.9,14.3
			c-0.7,4.6-1.4,9.2-2.2,13.8c-0.4,2.6-0.8,5.5-1.5,8.1c-1,4.2-5.2,9.5-7.9,12.9c-1.9,2.4-5.2,6.8-8.4,9.5c-1.5,2-2.9,4-4.7,5.9
			c-3.8,4.2-8.4,7.8-13.2,10.8c-1,0.6-1.9,1.2-2.9,1.7v3.3c12.7,0,17.6,3.9,20.5,16.3c1.8,7.7,3.6,15.3,5.4,23
			c1.8,7.7,3.7,15.4,5.4,23c0.7,3.2,1.6,6.3,2.2,9.5c0.8,4,1,7.9-1.5,11.5c-2.9,4-7.1,4.9-11.6,4.9c-3.3,0-6.5-0.2-9.8-0.2
			c-3.6,0-7.1,0-10.6,0v18.8l-0.4,1.3c-2.7,9.2-12.1,10.2-19.9,12.9l-70.2,24.5l-3.4,10.9l-0.1,0.3c-2.2,5.5-3.7,6.3-8.8,8.7
			l-0.3,0.1L289.1,577c-3.8,1.5-7.7,3.1-12,3.1H277c-4.2,0-8.1-1.5-12-3.1l-95-38.2l-0.3-0.1c-5.1-2.4-6.5-3.2-8.8-8.7l-0.1-0.3
			l-3.4-10.9l-70.2-24.5c-7.7-2.7-17.2-3.7-19.9-12.9l-0.4-1.3v-18.8c-3.6,0-7.1,0-10.6,0c-3.3,0-6.5,0.2-9.8,0.2
			c-4.6,0-8.8-0.9-11.6-4.9c-2.5-3.6-2.4-7.4-1.5-11.5c0.7-3.2,1.5-6.3,2.2-9.5c1.7-7.7,3.6-15.4,5.4-23c1.8-7.7,3.6-15.3,5.4-23
			c2.9-12.5,7.9-16.3,20.5-16.3v-10.2C41.8,348.2,26,320,32.7,290.8c-0.6-1.7-1.2-3.3-1.9-5c-2.6-6.8-5.5-13.6-8.5-20.2
			c-1.9-4.3-4.1-8.8-5.8-13.1c-1.7-4.2-2.2-9.3-0.9-13.8c-0.2-0.6-0.4-1.2-0.6-1.7c-0.4-1.2-0.7-2.4-0.7-3.6c-0.4-0.5-0.8-1-1.1-1.6
			c-1.7-2.7-2.5-5.7-2.6-8.8L10.2,222.9z"/>
		<path class="st1" d="M160.4,509.7c5.2,1.8,4.1,1,5.6,5.6l3.4,10.9c1.2,2.9,0.8,2.2,4.1,3.8l94.8,38.2c4.9,2,6.7,2.4,8.4,2.4h0.1
			h0.1h0.1h0.1c1.7,0,3.5-0.4,8.4-2.4l94.8-38.2c3.3-1.6,3-0.9,4.1-3.8l3.4-10.9c1.5-4.7,0.4-3.8,5.6-5.6l70.3-24.6
			c9.7-3.5,13-3.2,14-6.7v-26.8h9.3c3.6,0,7.1,0,10.7,0c8.9,0.1,12.7,0.8,13.8-0.7c1-1.5-0.4-5.2-2.2-13.6c-1.8-7.7-3.6-15.3-5.4-23
			s-3.6-15.3-5.4-23c-1.9-8.1-3.1-9.1-11.6-9.1h-9.2v-225c0-21.9,2-16.4-20.1-28.3L431,114.7l-3-9.1c-3.4-8.7-2-6.6-11.9-10
			C353.9,76.8,334.4,71,276.9,53.5h-0.1h-0.1h-0.1h-0.1h-0.1h-0.1c-57.6,17.4-77,23.3-139.2,42.1c-9.9,3.3-8.5,1.3-11.9,10l-3,9.1
			l-26.5,14.2c-22.1,11.8-20.1,6.4-20.1,28.3v225.2h-9.2c-8.4,0-9.7,1-11.6,9.1c-1.8,7.7-3.6,15.3-5.4,23c-1.8,7.7-3.6,15.3-5.4,23
			c-1.8,8.5-3.3,12.1-2.2,13.6s4.9,0.8,13.8,0.7c3.6,0,7.1,0,10.7,0h9.3v26.8c1,3.5,4.2,3.3,14,6.7L160.4,509.7z"/>
		<polygon class="st2" points="276.9,547.1 190.8,515.9 182.3,498.4 127.3,478.3 128.4,476 185.7,496 192.3,509 276.9,540 
			361.4,509 368.1,496 425.3,476 426.4,478.3 371.5,498.4 363,515.9 		"/>
		<polygon class="st0" points="349,451.9 364.8,451.9 364.8,467.5 349,467.5 		"/>
		<polygon class="st3" points="327.5,460.1 338.4,460.1 338.4,470.9 327.5,470.9 		"/>
		<polygon class="st3" points="346.9,477.8 354.7,477.8 354.7,485.6 346.9,485.6 		"/>
		<polygon class="st3" points="378.3,456.9 387.7,456.9 387.7,466.1 378.3,466.1 		"/>
		<polygon class="st0" points="407.6,452.8 414.3,452.8 414.3,459.5 407.6,459.5 		"/>
		<polygon class="st0" points="327.5,489.3 335.4,489.3 335.4,497 327.5,497 		"/>
		<polygon class="st0" points="204.7,451.9 189,451.9 189,467.5 204.7,467.5 		"/>
		<polygon class="st3" points="226.3,460.1 215.3,460.1 215.3,470.9 226.3,470.9 		"/>
		<polygon class="st3" points="206.9,477.8 199,477.8 199,485.6 206.9,485.6 		"/>
		<polygon class="st3" points="175.5,456.9 166.1,456.9 166.1,466.1 175.5,466.1 		"/>
		<polygon class="st0" points="146.1,452.8 139.5,452.8 139.5,459.5 146.1,459.5 		"/>
		<polygon class="st0" points="226.3,489.3 218.4,489.3 218.4,497 226.3,497 		"/>
		<path class="st4" d="M203,367.4c0,2-1.2,3.1-3.5,3.1H190v6.5h-3.6v-17.1h13.1c2.4,0,3.5,1,3.5,3V367.4L203,367.4z M199.6,366.1
			v-1.8c0-0.9-0.3-1.4-1-1.4H190v4.5h8.6C199.3,367.4,199.6,366.9,199.6,366.1L199.6,366.1z M226.9,377h-4.6l-5.8-6.5h-3.3v6.5h-3.6
			v-17H223c2.4,0,3.5,1,3.5,3v4.7c0,1.5-0.6,2.4-1.8,3h-3.8L226.9,377L226.9,377z M223,366.3v-2.1c0-0.9-0.3-1.3-1-1.3h-8.8v4.7h8.8
			C222.7,367.6,223,367.1,223,366.3L223,366.3z M253.6,373c0,1.6-0.3,2.6-0.8,3.2c-0.6,0.6-1.6,0.8-3.1,0.8h-11.4
			c-1.5,0-2.5-0.3-3.1-0.8c-0.6-0.6-0.8-1.6-0.8-3.2v-9c0-1.6,0.3-2.6,0.8-3.2c0.6-0.6,1.6-0.8,3.1-0.8h11.4c1.5,0,2.5,0.3,3.1,0.8
			c0.6,0.6,0.8,1.6,0.8,3.2V373z M249.9,373.7V363h-12v10.7H249.9z M295.1,377h-15.7v-17.1h3.6v13.9h12v3.2H295.1z M318.8,377h-3.5
			l-2-3.8h-10.2l-1.9,3.8h-3.6l8.8-17.1h3.5L318.8,377L318.8,377z M311.7,370.2l-3.5-7l-3.5,7H311.7z M341.3,373.7
			c0,2.2-1.5,3.3-4.6,3.3h-11.8v-17.1h12.8c2.4,0,3.5,1.1,3.5,3.3v2.1c0,1.7-0.9,2.6-2.7,2.9c1.9,0.3,2.8,1.4,2.8,3.3L341.3,373.7
			L341.3,373.7z M337.8,365.5v-1.9c0-0.6-0.6-0.9-1.7-0.9h-7.9v4h7.9C337.3,366.7,337.8,366.3,337.8,365.5z M337.9,372.7v-1.5
			c0-0.7-0.1-1.1-0.4-1.3c-0.3-0.2-0.8-0.3-1.4-0.3h-7.9v4.3h7.9c0.6,0,1-0.1,1.4-0.3C337.7,373.5,337.9,373.2,337.9,372.7
			L337.9,372.7z M367.2,372.9c0,1.6-0.3,2.6-0.9,3.2s-1.7,0.8-3.1,0.8h-9.7c-1.7,0-2.7-0.3-3.3-0.9c-0.5-0.6-0.8-1.9-0.8-4h3.6v1.6
			h10.8v-3.9h-10.1c-1.5,0-2.6-0.3-3.1-0.8c-0.6-0.6-0.8-1.7-0.8-3.2v-1.9c0-1.6,0.3-2.6,0.8-3.2c0.6-0.6,1.6-0.8,3.1-0.8h13v3H353
			v3.7h10.1c1.5,0,2.6,0.3,3.1,0.8c0.6,0.6,0.9,1.6,0.9,3.2L367.2,372.9L367.2,372.9z"/>
		<path class="st5" d="M216,415.9c0.7,1.5,1.5,3.1,2.2,4.6l0.3,0.6c0.1-1.7,0.2-3.5,0.3-5.2H216z"/>
		<path class="st6" d="M103,440c-3.6,0-7,0-10.6,0c0.7-3.8,1.4-7.5,2.2-11.3c-0.8-1.3-1.5-2.7-2.3-4c-6.6,0-13.2,0-19.8,0
			c-0.6,2.6-1.2,5.2-1.7,7.7c-0.6,2.6-1.1,5.1-1.7,7.7c-3.6,0-7,0-10.5,0c1.7-7.7,3.6-15.3,5.3-23s3.6-15.3,5.3-23
			c11.6,0,23.1,0,34.7,0c0.8,2.4,1.7,4.7,2.4,7.1c0.8,2.4,1.6,4.7,2.6,7.1c-2.7,3.6-5.3,7.1-7.9,10.7c1.5,2.6,3,5.3,4.5,7.9
			c-0.4,2.2-0.8,4.4-1.3,6.6C103.7,435.6,103.4,437.8,103,440L103,440z M98.2,409c-0.6-1.6-1.1-3.2-1.7-4.8c-6.5,0-13,0-19.6,0
			c-0.8,3.3-1.5,6.6-2.2,9.9c6.5,0,13.2,0,19.7,0C95.7,412.4,96.9,410.7,98.2,409L98.2,409z M151.4,440c-3.6,0-7,0-10.6,0
			c0.3-2.2,0.6-4.4,0.9-6.6c0.3-2.2,0.6-4.4,1-6.6c-7,0-14,0-21,0c-0.4,2.2-0.8,4.4-1.1,6.6c-0.3,2.2-0.7,4.4-1,6.6
			c-3.6,0-7,0-10.6,0c1-5.9,2.1-11.9,3.1-17.8s2.1-11.9,3.1-17.8c3.1-3.4,6.3-6.9,9.4-10.3c8.4,0,16.8,0,25.3,0
			c2,3.4,4.1,6.9,6.2,10.3c-0.8,5.9-1.6,11.9-2.4,17.8C153,428.1,152.2,434,151.4,440z M144.2,416.6c0.3-2.1,0.6-4.1,0.9-6.2
			c0.3-2.1,0.6-4.1,0.9-6.2c-6.9,0-13.7,0-20.5,0c-0.3,2.1-0.7,4.1-1,6.2s-0.7,4.1-1,6.2C130.3,416.6,137.2,416.6,144.2,416.6
			L144.2,416.6z M207.1,425.8c-1.5,2.4-3,4.7-4.5,7c-1.5,2.4-3,4.7-4.5,7c-13.6,0-27.1,0-40.6,0c3-3.4,6-6.8,9-10.3
			c8.8,0,17.5,0,26.3,0c0.9-1.3,1.9-2.5,2.8-3.8c-0.8-1.4-1.5-2.8-2.2-4.2c-8.7,0-17.4,0-26.1,0c-1-2.3-1.9-4.5-2.9-6.8
			c-1-2.2-1.9-4.5-2.9-6.8c1.5-2.4,3.1-4.7,4.7-7.1c1.5-2.4,3.1-4.7,4.7-7.1c12.9,0,25.7,0,38.6,0c-2.8,3.4-5.6,6.9-8.3,10.3
			c-8.6,0-17.1,0-25.6,0c-1,1.3-1.9,2.6-2.9,4c0.6,1.4,1.3,2.8,1.9,4.2c8.6,0,17.3,0,25.9,0c1.1,2.2,2.2,4.5,3.2,6.8
			c1,2.2,2.1,4.5,3.3,6.8H207.1z M258.2,393.9c-2.5,3.4-5.1,6.9-7.7,10.3c-3.3,0-6.7,0-10,0c-0.3,5.9-0.5,11.9-0.8,17.8
			c-0.2,5.9-0.5,11.9-0.7,17.8c-3.6,0-7,0-10.6,0c0.3-5.9,0.6-11.9,0.9-17.8c0.3-5.9,0.6-11.9,0.9-17.8c-3.3,0-6.6,0-10,0
			c-2.3-3.4-4.5-6.9-6.8-10.3C228.5,393.9,243.3,393.9,258.2,393.9L258.2,393.9z M298.7,440c-3.6,0-7,0-10.6,0
			c-0.1-2.2-0.1-4.4-0.1-6.6s0-4.4-0.1-6.6c-7,0-14,0-21,0c0,2.2-0.1,4.4-0.1,6.6s-0.1,4.4-0.1,6.6c-3.6,0-7,0-10.6,0
			c0.1-5.9,0.3-11.9,0.4-17.8s0.3-11.9,0.4-17.8c2.6-3.4,5.2-6.9,7.8-10.3c8.4,0,16.8,0,25.2,0c2.6,3.4,5.2,6.9,7.8,10.3
			c0.1,5.9,0.3,11.9,0.4,17.8C298.4,428.1,298.5,434,298.7,440L298.7,440z M287.9,416.6c0-2.1,0-4.1-0.1-6.2c0-2.1-0.1-4.1-0.1-6.2
			c-6.9,0-13.7,0-20.5,0c0,2.1,0,4.1-0.1,6.2c0,2.1-0.1,4.1-0.1,6.2C274,416.6,280.9,416.6,287.9,416.6L287.9,416.6z M346.1,429.7
			c-2.4,3.4-4.7,6.9-7.1,10.3c-10.9,0-21.9,0-32.8,0c-0.3-7.7-0.5-15.3-0.7-23s-0.4-15.3-0.6-23l0.1-0.1c3.3,0,6.6,0,10,0
			c0.3,5.9,0.5,11.9,0.8,17.8c0.2,5.9,0.5,11.9,0.7,17.8C326.3,429.6,336.1,429.6,346.1,429.7L346.1,429.7z M391.9,440
			c-3.6,0-7,0-10.6,0c-0.3-2.2-0.5-4.4-0.8-6.6s-0.5-4.4-0.7-6.6c-7,0-14.1,0-21,0c0.2,2.2,0.3,4.4,0.6,6.6c0.2,2.2,0.4,4.4,0.6,6.6
			c-3.6,0-7,0-10.5,0c-0.5-5.9-0.9-11.9-1.4-17.8c-0.4-5.9-0.9-11.9-1.3-17.8c2.2-3.4,4.5-6.9,6.8-10.3c8.4,0,16.8,0,25.3,0
			c2.9,3.4,5.8,6.9,8.8,10.3c0.7,5.9,1.4,11.9,2.1,17.8C390.4,428.1,391.2,434,391.9,440L391.9,440z M378.8,416.6
			c-0.2-2.1-0.4-4.1-0.6-6.2s-0.4-4.1-0.6-6.2c-6.9,0-13.7,0-20.5,0c0.2,2.1,0.3,4.1,0.6,6.2c0.2,2.1,0.3,4.1,0.6,6.2
			c6.9,0,13.8,0,20.7,0H378.8z M442,425.8c-0.9,2.4-1.8,4.7-2.7,7c-0.9,2.4-1.9,4.7-2.7,7c-12.4,0-24.6,0-37,0
			c-1-7.7-1.9-15.3-2.9-23s-1.9-15.3-2.9-23c11.7,0,23.4,0,35.2,0c1.7,2.4,3.3,4.7,5,7c1.7,2.4,3.3,4.7,5,7c-1.1,3-2.2,5.9-3.3,8.9
			C437.7,419.9,439.8,422.8,442,425.8L442,425.8z M427.7,408.1c-1.1-1.3-2.1-2.6-3.1-3.8c-6.5,0-13.1,0-19.6,0
			c0.3,2.7,0.8,5.4,1.1,8.1c6.5,0,13.1,0,19.6,0C426.4,410.9,427,409.5,427.7,408.1L427.7,408.1z M430.6,425.8
			c-1.1-1.4-2.2-2.8-3.2-4.2c-6.6,0-13.3,0-19.9,0c0.3,2.6,0.7,5.3,1.1,7.9c6.7,0,13.4,0,20.1,0
			C429.3,428.3,429.9,427.1,430.6,425.8z M495.2,425.8c-0.8,2.4-1.6,4.7-2.4,7c-0.8,2.4-1.6,4.7-2.3,7c-13.6,0-27.1,0-40.6,0
			c1.9-3.4,3.8-6.8,5.8-10.3c8.7,0,17.5,0,26.3,0c0.6-1.3,1-2.5,1.6-3.8c-1.1-1.4-2.2-2.8-3.3-4.2c-8.7,0-17.5,0-26.2,0
			c-1.7-2.3-3.4-4.5-5.1-6.8c-1.7-2.2-3.3-4.5-4.9-6.8c0.8-2.4,1.7-4.7,2.5-7.1s1.6-4.7,2.4-7.1c12.3,0,24.6,0,36.9,0
			c0.6,0,1.1,0,1.7,0c-1.7,3.4-3.4,6.9-5.2,10.3c-8.6,0-17.1,0-25.6,0c-0.6,1.3-1.2,2.6-1.7,4c1,1.4,2.1,2.8,3.3,4.2
			c8.6,0,17.3,0,25.9,0c1.7,2.2,3.4,4.5,5.2,6.8c1.8,2.2,3.6,4.5,5.4,6.8H495.2z"/>
		<g>
			<path class="st7" d="M188.4,202.2c0,0,0.1,13.8,1.9,21.8c1.9,8,5.4,9.5,7,10.2s-1-5.7-2.3-11.7s-0.9-14.2-1.3-15.8
				c-0.3-1.6-2.8-5.3-3.9-5.5C188.8,200.9,188.5,202.3,188.4,202.2L188.4,202.2z"/>
			<path class="st7" d="M200.3,209.9c0,0,0.6,12.6,3.3,19.6s3.6,8.2,6,9s-2.5-14.8-2.9-19.9s-2.6-8.2-4.2-8.9
				C200.8,208.9,200.2,209.9,200.3,209.9L200.3,209.9z"/>
			<path class="st7" d="M214.6,217.2c0,0-1-0.1-1.4,2s1.5,13.5,7,19.6s9.7,7.7,11.9,7c2.2-0.6-2.4-4-6.8-9.7
				c-4.4-5.7-6.3-13.9-7.1-15.7C217.5,218.6,214.6,217.2,214.6,217.2L214.6,217.2z"/>
			<path class="st7" d="M232.7,219.9c0,0,2.9,8.1,7,10.9c4.2,2.7,11.1,2.3,12.7,1.3c1.5-1-14.9-14.8-15.7-15c-0.9-0.2-2.6,0.3-3.4,1
				C232.5,218.9,232.7,220,232.7,219.9L232.7,219.9z"/>
			<path class="st7" d="M225.5,236.2c-3.5-4.5-5.4-10.7-6.4-13.9c-3.7-2.2-3.4,1.4,1.9,11.7c5.2,10.3,11.8,11.7,11.8,11.7
				C233.7,244.6,229.5,241.3,225.5,236.2L225.5,236.2z"/>
			<path class="st7" d="M209.9,238.4c1.7-0.6-2.8-15-3.1-19.9c-0.1-1.3-0.3-2.5-0.6-3.6c-3-3-3.6-0.9-2.2,6.8
				C205.3,229.3,209.9,238.4,209.9,238.4L209.9,238.4z"/>
			<path class="st7" d="M195,222.5c-1.3-6-0.9-14.2-1.3-15.8c-1.9-2.8-3.8-1.9-2.4,10c1.4,11.9,6,17.5,6,17.5
				C199.1,234.8,196.4,228.4,195,222.5L195,222.5z"/>
			<path class="st1" d="M131.7,166c-2.2,2.2-6,8.4-7.6,11.1c-0.1-1.2-0.2-2.3-0.4-3.2c-0.3-1.3-0.8-2.3-1.3-3.3
				c0.1-0.8,0.2-1.5,0.2-2.4c0.1-2.4-0.6-4.1-1.7-5.8c0.1-0.3,0.1-0.6,0.1-0.9l0.2-1.7l-0.5-1.7c-0.6-1.9-1.1-3.8-1.7-5.6
				c-0.6-2-1.5-5.2-2.5-7c-1.2-2.1-3.2-3.6-5.6-4.1c-3.8-0.8-7.2,1-9.2,4c-0.6,1-1.1,2-1.5,3.1c-0.8,2.2-1.3,4.7-1.7,7.1
				c-0.5,3.4-0.3,6.1,0.5,9.1c-0.3,1-0.5,1.9-0.6,3.1c-0.1,2.4,0.3,4,1.2,6c-0.1,2.3-0.3,4.5-0.2,7c0.1,1.7,0.5,3.6,1,5.4
				c0,0,0,0.1-0.1,0.1c-1.3,2.2-1.9,4.5-1.5,7.1c0.2,1,0.5,1.8,1,2.6c-0.5,1-0.8,2.3-1,3.5c-0.4,0-0.9,0-1.3,0
				c-0.1-0.5-0.3-0.9-0.5-1.4c0.1-0.4,0.3-0.9,0.4-1.4c0.8-3.6-0.6-6.7-2.9-8.8c0.2-3.3,0.3-7.7-0.5-10.4c-0.3-1.3-0.8-2.4-1.3-3.6
				c0.1-0.8,0.2-1.7,0.2-2.6c0-2.4-0.7-4.1-1.8-5.8c0.1-0.4,0.1-0.8,0.1-1.3l0.2-1.7l-0.5-1.7c-0.6-1.9-1.3-3.9-1.8-5.8
				c-0.7-2.1-1.6-5.4-2.6-7.2c-1.3-2.2-3.3-3.7-5.8-4.1c-3.8-0.7-7.3,1.3-9.1,4.5c-0.6,1-1,2.1-1.4,3.2c-0.8,2.4-1.3,4.9-1.5,7.3
				c-0.4,3.6-0.1,6.3,0.7,9.5c-0.3,1.1-0.5,2.1-0.6,3.4c-0.1,2.5,0.4,4,1.3,6.1c0,2.5-0.3,4.8-0.1,7.4c0.2,2,0.6,4.1,1.3,6.1
				c-1,2.2-1.5,4.6-0.8,7c0.2,0.8,0.6,1.5,0.9,2.2c-0.6,1.8-0.7,4-0.5,6c-0.6-1.3-1.3-2.4-2.1-3.4c0.1-0.5,0.1-1,0.1-1.5
				c-0.1-3.4-2.1-6-4.7-7.4c-0.3-3.2-0.9-7.4-2.1-9.8c-0.6-1.2-1.2-2.2-1.8-3.1c0-0.8-0.1-1.6-0.2-2.4c-0.3-2.3-1.3-3.8-2.6-5.3
				c0-0.4-0.1-0.8-0.1-1.1l-0.1-1.7l-0.8-1.5c-0.8-1.7-1.7-3.5-2.6-5.3c-1-1.9-2.4-4.9-3.6-6.5c-1.5-1.9-3.9-3.1-6.3-3.1
				c-5.6-0.1-8.4,4.4-9.1,9.1c-0.3,2.4-0.4,4.9-0.3,7.2c0.2,3.5,0.8,6,2.1,8.9c-0.1,1-0.1,2.1,0,3.3c0.3,2.4,1,3.8,2.2,5.6
				c0.3,2.3,0.5,4.6,1.1,7c0.6,2.2,1.5,4.5,2.7,6.5c-0.8,2.8-0.9,5.8,0.8,8.4c0.5,0.8,1,1.5,1.7,2c-0.1,0.8,0,1.7,0.1,2.6
				c-1.1-2.3-3.2-3.9-5.6-4.8c-0.6-2.9-1.3-6.2-2.4-8.3c-0.6-1.1-1.3-1.9-1.9-2.9c-0.1-0.8-0.1-1.5-0.3-2.3
				c-0.5-2.2-1.5-3.7-2.9-4.9c-0.1-0.3-0.1-0.6-0.1-0.9l-0.2-1.7l-0.8-1.5c-1-1.6-1.9-3.2-2.9-4.8c-1-1.7-2.6-4.5-4-6
				c-1.7-1.8-4.1-2.8-6.5-2.7c-5.6,0.3-8,4.9-8.4,9.7c-0.2,2.3-0.1,4.7,0.2,7c0.4,3.3,1.3,5.7,2.6,8.4c0,1,0,1.9,0.3,3.1
				c0.4,2.3,1.3,3.6,2.4,5.3c0.5,2.2,0.8,4.3,1.5,6.5c0.7,2.2,1.8,4.5,3.3,6.3c-0.3,2.2-0.1,4.5,1.2,6.5c0.7,1.1,1.5,2,2.5,2.7
				c0,0.5,0,1,0.1,1.6c-0.1,1-0.2,1.9,0,2.4c0.6,1.4,1.9,5.6,1.9,5.6s-2.9,3.6-0.5,9.8c1.9,5,11.3,24,17.3,41.4
				C33.2,322.3,56,352.2,86,361.2c31.7,9.5,58.3-7.4,58.3-7.4s15.2,0,27.3-6.5s14.7-15.2,14.7-15.2s15.5,14.4,47,21.5
				s43.3,5.5,43.3,5.5c57.6,0.6,100-33.6,99.2-33.9c-0.8-0.3,5.2,0.3,6.1,0.6c0.8,0.4,3.8,3.3,3.8,3.3l8.4,1.8c0,0,3.7,21.8,29.2,31
				s49.5,5.8,61.7-1.8c12.2-7.6,15.2-15.1,16.3-15.5c1-0.4,12.9-14.4,13.6-17.9c0.8-3.4,6.7-40.3,5.9-42.7c-0.8-2.4-11-9.1-11-9.1
				s0.6-3.4-0.1-9.3c-0.8-5.9-2.6-11.4-4-13.2c-1.3-1.7-2.1-1.6-10.1-7.9c-8-6.3-18.4-20.7-20.6-22.3s-10.1-1-11.3-1.8
				c-1.2-0.8,0.1-3.4-0.4-5.6c-0.6-2.2-8.9-9.2-14.4-13.2s-9.8-4.2-9.8-4.2s0.8-3.3,0.1-4.9S424.1,167.6,423,167
				c-1-0.6-10.4-7-10.4-7l-38.2-21.2c0,0,5.5-2.4,5.8-6.9c0.3-4.5-0.1-17.3-0.8-22.1s-0.5-4.7-0.5-4.7s7.8-0.4,10.2-4.4
				c0.4-0.8,1-1.9,1.5-3.3c0.2-0.6,0.4-1.4,0.6-2.2h7h0.1h0.1h0.1l0,0h0.1h0.1h0.1l0,0h0.1h0.1l0,0h0.1h0.1l0,0h0.1h0.1h0.1h0.1l0,0
				h0.1l0,0h0.1h0.1h0.1h0.1h0.1l0,0h0.1l0,0h0.1h0.1h0.1h0.1l0,0h0.1l0,0h0.1l0,0l0.1-0.1l0.1-0.1l0.1-0.1l0,0l0.1-0.1l0.1-0.1
				l0.1-0.1l0,0l0.1-0.1l0.1-0.1l0.1-0.1l0.1-0.1v-0.1V94v-0.1l0,0v-0.1v-0.1l0,0v-0.1l0,0V94v-0.1v-0.1v-0.1v-0.1v-0.1l0,0v-0.1
				v-0.1v-0.1v-0.1V93v-0.1v-0.1v-0.1V93l0,0v-0.1v-0.1v-0.1v-0.1v-0.1v-6.9c1.4-0.8,2.4-2.3,2.4-4c0-2.6-2.1-4.7-4.7-4.7
				s-4.7,2.1-4.7,4.7c0,1.7,1,3.3,2.4,4v4.6H393c-0.2-3.3-1.5-6.6-4.4-8.3c-5.2-2.9-9.6-1.1-9.6-1.1s-3.1-1-9.2-5.4
				c-6.1-4.5-8.3-11.2-8.3-11.2l4.5,1.7c0,0,0.1,1.3,1.5,2.9c1.3,1.7,4.4,3.1,7.4,2.5c2.9-0.6,5.8-3.1,6.4-8.6h5.6v4.6
				c-1.4,0.8-2.4,2.3-2.4,4c0,2.6,2.1,4.7,4.7,4.7s4.7-2.1,4.7-4.7c0-1.7-1-3.3-2.4-4v-6.9v-0.1v-0.1v-0.1V60v-0.1V60l0,0v-0.1v-0.1
				v-0.1v-0.1v-0.1v-0.1v-0.1v-0.1l0,0v-0.1V59v-0.1v-0.1V59l0,0l0,0v-0.1l0,0v-0.1v-0.1l0,0v-0.1v-0.1v-0.1l-0.1-0.1l-0.1-0.1
				l-0.1-0.1l-0.1-0.1l0,0l-0.1-0.1l-0.1-0.1l-0.1-0.1l0,0l-0.1-0.1l-0.1-0.1l-0.1-0.1l0,0h-0.1l0,0h-0.1l0,0h-0.1h-0.1H390h-0.1
				l0,0h-0.1l0,0h-0.1h-0.1H389h-0.1h-0.1l0,0h-0.1l0,0h-0.1h-0.1h-0.1h-0.1l0,0h-0.1h-0.1l0,0H388h-0.1l0,0h-0.1h-0.1h0.3l0,0h-0.1
				h-0.1h-0.1h-8.1c-0.6-4-2.8-7.2-7-7.7c-5.6-0.6-8.4,2.2-8.4,2.2s-1.7-0.6-3.4-1.6c-1.7-1-2.9-3.1-4.2-4.7
				c-1.3-1.6-2.9-2.8-2.9-2.8s1-0.4,1.7-0.3c0.6,0.1,0.9,0.8,2.6,0.9c1.7,0.1,7-0.2,8.7-5c0.3-0.8,0.5-1.6,0.6-2.5h6.3v4.9
				c0,1.3,1,2.4,2.4,2.4l0,0h6.7c0.8,1.4,2.3,2.4,4,2.4c2.6,0,4.7-2.1,4.7-4.7s-2.1-4.7-4.7-4.7c-1.7,0-3.3,1-4,2.4h-4.4v-4.9V34
				v-0.1v-0.1v-0.1v-0.1v-0.1v-0.1v-0.1v-0.1v-0.1V33v-0.1v-0.1v-0.1V33l0,0v-0.1v-0.1v-0.1v-0.1v-0.1v-0.1l0,0v-0.1l0,0v-0.1v-0.1
				l0,0V32v-0.1v-0.1l-0.1-0.1l-0.1-0.1l-0.1-0.1l-0.1-0.1l0,0l-0.1-0.1l-0.1-0.1l-0.1-0.1l0,0l-0.1-0.1l-0.1-0.1l-0.1-0.1l0,0h-0.1
				l0,0h-0.1l0,0H377h-0.1h-0.1h-0.1l0,0h-0.1l0,0h-0.1h-0.1h-0.1h0.7h-0.1l0,0h-0.1l0,0h-0.1h-0.1h-0.1h-0.1l0,0h-0.1h-0.1l0,0
				h-0.1H376l0,0h-0.1h-0.1h-0.1l0,0h0.3l0,0h-0.1h-8.8c-0.6-3.1-2.4-5.8-5.4-6.8c-5.6-1-9.7,3-9.7,3s-2.9-1.1-10.8-1.5
				c-7.8-0.4-14.1,2.1-15.2,2.2c-1,0.1-11.7-7.4-11.7-7.4s-4.8-7-16.1-9.3s-21.5-2-21.5-2s-10.2-0.3-21.5,2
				c-11.3,2.3-16.1,9.3-16.1,9.3s-10.7,7.5-11.7,7.4s-7.4-2.6-15.2-2.2S201.4,27,201.4,27s-4-4-9.6-2.2c-3.1,1-4.8,3.7-5.4,6.8h-8.8
				h-0.1h-0.1h-0.1l0,0h-0.1h-0.1H177l0,0h-0.1h-0.1l0,0h0.2h-0.1l0,0h-0.1h-0.1h-0.1h-0.1l0,0h-0.1l0,0h-0.1h-0.1h-0.1H176h-0.1
				l0,0h-0.1l0,0h-0.1h0.3h-0.1h-0.1l0,0h-0.1l0,0h-0.1l0,0l-0.1,0.1l-0.1,0.1l-0.1,0.1l0,0l-0.1,0.1l-0.1,0.1l-0.1,0.1l0,0
				l-0.1,0.1l-0.1,0.1l-0.1,0.1l-0.1,0.1v0.1v0.1v0.1l0,0V33v0.1l0,0v0.1l0,0v0.1v0.1v0.1v0.1v0.1V33l0,0v0.1v0.1v0.1v0.1v0.1v0.1
				v0.1v0.1v0.1V34v0.1v0.1v0.1V34v0.1V39h-4.4c-0.8-1.4-2.3-2.4-4-2.4c-2.6,0-4.7,2.1-4.7,4.7s2.1,4.7,4.7,4.7c1.7,0,3.3-1,4-2.4
				h6.7l0,0c1.3,0,2.4-1,2.4-2.4v-4.9h6.3c0.1,0.9,0.3,1.7,0.6,2.5c1.7,4.8,7,5.2,8.7,5c1.7-0.1,1.9-0.8,2.6-0.9s1.7,0.3,1.7,0.3
				s-1.7,1.2-2.9,2.8c-1.3,1.6-2.5,3.7-4.2,4.7s-3.4,1.6-3.4,1.6s-2.7-2.9-8.4-2.2c-4.2,0.5-6.3,3.8-7,7.7h-8.1h-0.1H165h-0.1l0,0
				h-0.1h-0.1h-0.1l0,0h-0.1h-0.1l0,0h-0.1h0.7l0,0h-0.1h-0.1h-0.1h-0.1l0,0h-0.1l0,0h-0.1h-0.1h-0.1h-0.1H164l0,0h-0.1l0,0h-0.1
				h-0.1h0.3l0,0l0,0h-0.1l0,0h-0.1l0,0l-0.1,0.1l-0.1,0.1l-0.1,0.1l0,0l-0.1,0.1l-0.1,0.1l-0.1,0.1l0,0l-0.1,0.1l-0.1,0.1l-0.1,0.1
				l-0.1,0.1v0.1V59v0.1l0,0v0.1v0.1l0,0V59l0,0l0,0v0.1v0.1v0.1v0.1v0.1l0,0v0.1v0.1v0.1v0.1V60v0.1v0.1V60l0,0v0.1v0.1v0.1v0.1
				v0.1v0.1v6.9c-1.4,0.8-2.4,2.3-2.4,4c0,2.6,2.1,4.7,4.7,4.7s4.7-2.1,4.7-4.7c0-1.7-1-3.3-2.4-4v-4.6h5.6c0.6,5.5,3.5,8,6.4,8.6
				s6.1-0.8,7.4-2.5c1.3-1.7,1.5-2.9,1.5-2.9l4.5-1.7c0,0-2.2,6.8-8.3,11.2c-6.1,4.5-9.2,5.4-9.2,5.4s-4.5-1.7-9.6,1.1
				c-2.9,1.7-4.2,4.9-4.4,8.3H157v-4.6c1.4-0.8,2.4-2.3,2.4-4c0-2.6-2.1-4.7-4.7-4.7c-2.6,0-4.7,2.1-4.7,4.7c0,1.7,1,3.3,2.4,4v6.9
				v0.1v0.1V93v0.1V93l0,0v0.1v0.1v0.1v0.1v0.1v0.1v0.1v0.1v0.1l0,0V94v0.1v0.1v0.1V94v0.1l0,0v0.1l0,0v0.1v0.1l0,0v0.1v0.1v0.1
				l0.1,0.1l0.1,0.1l0.1,0.1l0.1,0.1l0,0l0.1,0.1l0.1,0.1l0.1,0.1l0,0l0.1,0.1l0.1,0.1l0.1,0.1l0,0h0.1l0,0h0.1l0,0h0.1h0.1h0.1h0.1
				l0,0h0.1l0,0h0.1h0.1h0.1h0.1h0.1l0,0h0.1l0,0h0.1h0.1h0.1h0.1l0,0h0.1h0.1l0,0h0.1h0.1l0,0h0.1h0.1h0.1l0,0h0.1h0.1h0.1h7
				c0.1,0.8,0.3,1.5,0.6,2.2c0.3,0.8,0.6,1.6,0.9,2.2c0.3,0.2,0.6,0.4,0.8,0.8c2.1,4.3,10.3,4.7,10.3,4.7s0.1-0.1-0.5,4.7
				c-0.6,4.9-1,17.6-0.8,22.1c0.3,4.5,5.8,6.9,5.8,6.9c-6.2,3.4-43.1,22.7-47.9,27.2L131.7,166z M398,83.4c-0.9,0-1.7-0.8-1.7-1.7
				c0-0.9,0.8-1.7,1.7-1.7s1.7,0.8,1.7,1.7C399.6,82.6,398.9,83.4,398,83.4z M400.3,92.7L400.3,92.7z M387.6,69.8
				c-0.9,0-1.7,0.8-1.7,1.7c0,0.9,0.8,1.7,1.7,1.7c0.9,0,1.7-0.8,1.7-1.7C389.3,70.5,388.5,69.8,387.6,69.8z M390,60.4L390,60.4z
				 M386.7,39.7c-0.9,0-1.7,0.8-1.7,1.7s0.8,1.7,1.7,1.7c0.9,0,1.7-0.8,1.7-1.7C388.4,40.5,387.6,39.7,386.7,39.7z M155.7,83.4
				c0.9,0,1.7-0.8,1.7-1.7c0-0.9-0.8-1.7-1.7-1.7s-1.7,0.8-1.7,1.7S154.8,83.4,155.7,83.4z M153.3,92.7L153.3,92.7z M166.1,69.8
				c0.9,0,1.7,0.8,1.7,1.7c0,0.9-0.8,1.7-1.7,1.7s-1.7-0.8-1.7-1.7C164.4,70.5,165.1,69.8,166.1,69.8z M163.7,60.4L163.7,60.4z
				 M167,39.7c0.9,0,1.7,0.8,1.7,1.7S167.9,43,167,43s-1.7-0.8-1.7-1.7C165.3,40.5,166.1,39.7,167,39.7z"/>
			<path class="st8" d="M115.7,185c0,0,0.6-6.9,0.1-9c-0.6-2.1-1.7-3.8-1.7-4.6s0.3-2.1,0.4-3.4c0-1.3-1.8-2.9-1.9-3.4
				s0.4-4.2,0.4-4.2s-3.1-10-3.6-10.9s-2,2.4-2.6,7.2s0.8,7.5,0.8,8.1s-0.8,1.9-0.9,3.6c-0.1,1.6,1,2.9,1.2,3.9
				c0.1,1-0.4,5.2-0.2,7.9c0.2,2.7,1.2,5.8,2.7,6.3c1.5,0.4,3.7,0.2,4.4-0.3C115.6,185.6,115.6,185,115.7,185L115.7,185z
				 M107.2,204.9c0,0-0.2-4.7,0.3-5.6c0.6-0.9,1.7-2.2,2.5-1.9c0.9,0.3,2.1,0.9,4.2,0.7c2-0.2,2.6-0.8,3.3-0.3
				c0.6,0.5,1,4.7,0.7,5.6c-0.3,0.8-0.5,1-3.2,0.6c-2.7-0.5-4.8,0.6-6,1.8c-1.1,1.2-2,1.1-2,1.1L107.2,204.9L107.2,204.9z
				 M108.4,189.4c0,0,2.5,0.8,4.9,0.8c2.4-0.1,3-1,3.6-0.9c0.6,0.2,2.4,1.3,2.2,2.1c-0.3,0.8-1.3,2.2-2.3,2.5s-3.7,0.4-6,0
				s-3.5-1.5-3.6-2.2C107,191,108.4,189.4,108.4,189.4L108.4,189.4z M79.8,208.5c0,0-0.7-4.6-0.2-5.6s1.4-2.3,2.4-2.1
				c0.9,0.2,2.2,0.7,4.2,0.3s2.5-1,3.2-0.6s1.5,4.7,1.3,5.4c-0.2,0.8-0.4,1.1-3.1,0.9s-4.7,1.1-5.8,2.4c-1,1.3-1.9,1.3-1.9,1.3
				l-0.1-2.2V208.5z M79.7,193.6c0,0,2.4,0.6,4.7,0.4s2.7-1.2,3.2-1c0.5,0.1,2.4,1,2.2,1.8c-0.2,0.8-1,2.1-1.9,2.5s-3.4,0.7-5.6,0.5
				s-3.3-1.1-3.6-1.8c-0.2-0.7,1-2.2,1-2.2L79.7,193.6z M54.8,217.6c0,0-1.5-4.4-1.3-5.4c0.3-1,1-2.5,1.9-2.5s2.3,0.3,4.2-0.5
				s2.3-1.5,3.1-1.2s2.4,4.2,2.3,5.2c-0.1,0.8-0.2,1.2-2.9,1.5c-2.7,0.3-4.5,2-5.2,3.5c-0.8,1.5-1.7,1.7-1.7,1.7L54.8,217.6
				L54.8,217.6z M51,203.3c0,0,2.5-0.1,4.6-0.9c2.1-0.8,2.3-1.9,2.9-1.9s2.5,0.3,2.6,1.2c0,0.8-0.4,2.3-1.2,2.9
				c-0.8,0.6-3.1,1.6-5.2,1.9c-2.2,0.3-3.6-0.2-3.9-0.8S51.1,203.4,51,203.3L51,203.3z M33.6,234.9c0,0-2.2-4.1-2-5.2
				c0.1-1,0.6-2.6,1.5-2.8c0.9-0.1,2.3-0.1,4-1.1s2-1.8,2.9-1.7c0.8,0.2,2.9,3.9,3,4.7s0,1.2-2.6,1.9s-4.1,2.6-4.6,4.2
				c-0.6,1.6-1.4,1.9-1.4,1.9L33.6,234.9L33.6,234.9z M28.2,219.9c0,0,2.5-0.1,4.6-0.9c2.1-0.8,2.3-1.9,2.9-1.9s2.5,0.3,2.6,1.2
				c0,0.8-0.4,2.3-1.2,2.9c-0.8,0.6-3.1,1.6-5.2,1.9s-3.6-0.2-3.9-0.8C27.6,221.9,28.3,220,28.2,219.9L28.2,219.9z M32.3,213.8
				c0,0-1.1-6.6-2.1-8.4c-1-1.8-2.4-3.1-2.6-3.9c-0.2-0.8-0.1-2.1-0.4-3.3c-0.3-1.3-2.3-2.2-2.5-2.7s-0.6-4-0.6-4s-5.1-8.6-5.7-9.3
				s-1.3,2.7-0.6,7.4c0.6,4.6,2.6,6.8,2.7,7.4c0.1,0.6-0.2,2,0.1,3.6c0.3,1.5,1.5,2.4,1.9,3.3c0.4,0.9,0.9,5,1.7,7.4
				s2.4,5.2,3.9,5.2s3.3-0.7,3.8-1.4C32.5,214.4,32.4,213.8,32.3,213.8L32.3,213.8z M56.5,196.3c0,0-0.6-7-1.5-8.9s-2.3-3.4-2.4-4.2
				c-0.1-0.8,0-2.2-0.2-3.5s-2.2-2.5-2.4-3.1c-0.1-0.6-0.3-4.2-0.3-4.2s-4.7-9.4-5.3-10.2s-1.5,2.8-1.2,7.7s2.2,7.3,2.3,7.9
				c0.1,0.6-0.3,2.1-0.1,3.8c0.2,1.6,1.5,2.7,1.8,3.6c0.3,1,0.6,5.3,1.3,7.9c0.7,2.6,2.2,5.6,3.7,5.7c1.5,0.1,3.5-0.5,4.1-1.2
				s0.5-1.3,0.5-1.3H56.5z M86.5,188.9c0,0,0.5-7.3-0.1-9.5s-1.7-3.9-1.7-4.7s0.3-2.2,0.3-3.6c0-1.4-1.9-2.9-1.9-3.6
				c-0.1-0.6,0.3-4.4,0.3-4.4s-3.3-10.4-3.8-11.3c-0.5-0.9-1.9,2.6-2.5,7.7c-0.6,5.1,1,7.9,1,8.5s-0.7,2.1-0.8,3.8
				c-0.1,1.7,1,3,1.3,4c0.2,1-0.3,5.5,0,8.4c0.3,2.8,1.3,6.1,2.9,6.5c1.6,0.3,3.7,0.1,4.4-0.6c0.8-0.6,0.8-1.3,0.8-1.3h-0.2V188.9z"
				/>
			<path class="st9" d="M39.5,258.2l-5-12l3.4-0.3l1.2-8.6l2.6,1l4-3.4l3.4-0.3l1.6-1.8c0,0,4.5,9.2,5.8,11.3s1.5,2.1,1.5,2.1
				s-0.9-9.4-1.3-11.1c-0.4-1.7-1.5-6.3-1.7-8.2s-0.1-3.3-0.1-3.3l3,0.8l2.3-4.9l2.9,2.4l2.1-2.3l2.9,1.4l1-2c0,0,5.1,7.7,5.6,9.1
				c0.6,1.4,0.4,2.9,1.1,4.5s2.8,6.2,3.2,5.5c0.5-0.6-0.8-8.8-1-10.9c-0.2-2,1-12.4,1-12.4l2.4,1.7l3.8-4.7c0,0,1.6,4,2.1,3.8
				c0.6-0.3,2.9-3.1,2.9-3.1l3.3,2.2l3.3-1.6l3.7,13.8c0,0,1.2,8.1,2,7.6c0.8-0.6,1.4-7.5,1.4-7.9s1.7-13.2,1.7-13.2l2.7,0.7
				l2.8-3.6l3.4,3.2l3.6-0.8l0.9,1.7l3.2-1.1c0,0,0.8,17.4,1.3,19c0.4,1.6,2.6,7.5,2.6,11c0,3.6,0.3,17.5,0,18.5s-5.6,4.5-10.2,11.9
				s-3.8,13-3.4,13.2s0.4-0.3,3.1-3.9c2.6-3.6,5.4-5.4,5.7-5.2c0.3,0.2-0.5,2,0.1,5.8s2.6,5.5,2.6,5.5s-0.2-7.5,3.8-13.8
				s7.2-8.9,7.2-8.9l2.6,2.7l2.9-1.7l0.9,6.7l3.6,2.1l0.6,2.2l4.3,2.5c0,0-4.4,4.9-4.7,7.3s-0.4,2.6-0.6,4.4
				c-0.2,1.8-8.6,12.8-19.9,19s-20.9,5.2-21.7,4.7s-5.5-4.7-8.8-9.9c-3.3-5.2-3.6-7.8-3.6-7.8s-1,5.2-0.1,10.4s2.6,6.8,2.6,6.8
				s-1,2.5-5.2,2.8s-14.3,0.3-20.9-3.1c-6.5-3.4-6.3-9.3-10.5-22.1c-4.2-12.9-16.6-36-16.6-36L39.5,258.2z"/>
			<path class="st10" d="M123.2,232.1c0.1,0.5,0.1,0.8,0.1,1c0.4,1.6,2.6,7.5,2.6,11c0,3.6,0.3,17.5,0,18.5s-5.6,4.5-10.2,11.9
				s-3.8,13-3.4,13.2s0.4-0.3,3.1-3.9c2.6-3.6,5.4-5.4,5.7-5.2c0.3,0.2-0.5,2,0.1,5.8s2.6,5.5,2.6,5.5s-0.2-7.5,3.8-13.8
				s7.2-8.9,7.2-8.9l2.6,2.7l2.9-1.7l0.9,6.7l1.7,1c0,0-7.7,27.1-18.9,36.6c-2.7,1.5-5.4,2.5-7.8,3.3c-2.9-0.1-5.8-1.6-8.8-5.2
				c-5.3-6.1-7.5-12.3-7.9-18.1l5.7-1.3l-2.5-1.4l-3.2,0.7c0.1-14.5,10.9-26.8,13-32.6c3.1-8.3,0.4-24.3,0.4-24.3l4.2-5.3l6.1,3.5
				L123.2,232.1z"/>
			<path class="st11" d="M34.5,246.3c5,12,18.7,38.7,21.7,47.9c4.2,12.9,4,18.7,10.5,22.1s16.7,3.4,20.9,3.1
				c4.2-0.3,5.2-2.8,5.2-2.8s-1.7-1.6-2.6-6.8c-0.3-1.9-0.3-4-0.3-5.6c-1.9,1.9-3.1,9.1-3.1,9.1s-0.4,0.3-5-0.1s-11.6-0.3-13.8-3.7
				C58,294.4,53.6,259.2,34.5,246.3L34.5,246.3z"/>
			<path class="st11" d="M108,295c-2.9,9.1-0.5,15.8-0.5,15.8s-2-0.6-8-3.6s-8.9-6.6-8.9-6.6c0.3,1.2,1.3,3.5,3.3,6.8
				c3.3,5.2,8,9.5,8.8,9.9s10.4,1.5,21.7-4.7s19.7-17.1,19.9-19c0.2-1.8,0.3-1.9,0.6-4.4c0.3-2.4,4.7-7.3,4.7-7.3l-4.3-2.5l-0.6-2.2
				l-3.6-2.1l-0.9-6.7l-2.9,1.7l-2.6-2.7c0,0-3.3,2.6-7.2,8.9c-4,6.3-3.8,13.8-3.8,13.8s-1.9-1.7-2.6-5.5c-0.6-3.8,0.2-5.6-0.1-5.8
				c-0.3-0.2-3,1.6-5.7,5.2c-2.6,3.6-2.7,4-3.1,3.9c-0.1-0.1-0.3-0.9-0.3-2.3C110.8,287.6,109.3,290.7,108,295L108,295z"/>
			<path class="st1" d="M103.7,290.5l-6.3,1.4c-2.2,0.5-4.5,1-6.7,1.5s-4.5,1-6.7,1.5l-0.2,0.1l-0.2-1.9l6.6-1.5
				c2.2-0.5,4.5-1,6.7-1.5l4.2-1L103.7,290.5L103.7,290.5z M77.1,289.2l-0.8-9.6l-0.2-2.3c-4.1-2.2-7-6.1-8.1-10.7
				c-1-4.4-0.1-8.8,2.3-12.4l1.7,0.9c-2.1,3.1-2.9,7.1-2.1,11.1c1,4.5,4,8.1,8,9.9l0.3,3.3l0.8,9.3L77.1,289.2L77.1,289.2z
				 M83.4,246.9c7.6-0.2,14.6,5,16.4,12.7l0.1,0.2l-1.9,0.3V260c-1.5-6.8-7.7-11.4-14.4-11.2L83.4,246.9L83.4,246.9z"/>
			<path class="st11" d="M81.5,252.7c5.7-1.3,11.3,2.3,12.6,8c0.9,4.1-0.7,8.1-3.8,10.6l2,5.4c1.2,3.2,2.4,6.4,3.6,9.6
				c-2.2,0.5-4.5,1-6.7,1.5s-4.5,1-6.7,1.5c-0.3-3.4-0.6-6.8-0.8-10.2l-0.5-5.8c-3.8-0.9-7-3.9-7.9-8c-1.3-5.7,2.3-11.3,8-12.6
				L81.5,252.7z"/>
			<path class="st1" d="M81.5,252.7c5.7-1.3,11.3,2.3,12.6,8c0.8,3.7-0.8,8.3-3.8,10.6l2,5.4l2.9,7.6l-3.9,0.9
				c-2.2,0.5-4.5,1-6.7,1.5c-0.3-3.4-0.6-6.8-0.8-10.2l-0.5-5.8c-3.8-0.9-7-3.9-7.9-8c-0.6-2.6-0.1-5.1,1-7.2
				C77.7,254.2,79.4,253.2,81.5,252.7L81.5,252.7z"/>
			<path class="st1" d="M81.5,252.7c5.7-1.3,11.3,2.3,12.6,8c0.8,3.7-0.8,8.3-3.8,10.6l2,5.4l2.2,5.6l-0.7,0.1
				c-2.2,0.5-4.5,1-6.7,1.5c-0.3-3.4-0.6-6.8-0.8-10.2l-0.5-5.8c-3.8-0.9-7-3.9-7.9-8c-0.5-2.2-0.3-4.2,0.5-6.2
				C79.3,253.3,80.3,252.9,81.5,252.7L81.5,252.7z"/>
			<path class="st3" d="M165.1,287.1c-6.3,45.7-62.5,63.2-99,40C98.7,374.7,178.9,330,165.1,287.1L165.1,287.1z"/>
			<path class="st12" d="M165.1,287.1c-3.5,25.4-22.4,42.1-44.8,47.9c2.3,0.9,6.1,1.6,12.5,1.5c4.1-0.1,7.9-0.9,11.4-2
				C160.5,322.8,170.8,304.8,165.1,287.1L165.1,287.1z"/>
			<path class="st13" d="M143.6,265.1c0,0,0.6,7.2,0.9,7.5s3.1,1.9,3.1,1.9s-0.3,1.9,0.4,1.9c0.7,0.1,4-4,4-4.2
				c0.1-0.2,0.1-5.6-0.1-6.4c-0.2-0.8-2.9-4-4.2-4C146.5,261.9,143.6,265.1,143.6,265.1L143.6,265.1z"/>
			<path class="st13" d="M149.8,258.9c0,0,2.2,1.7,3.2,2.9s1.3,2.4,1.5,2.9c0.1,0.4,0.1,1.3,0.1,1.3s1.6-1,2.1-2.3s0.6-1.9,0.3-2.8
				s-3.1-3.8-4-4.2s-1.9-1-2.8-0.3C149.3,257.1,149.8,258.9,149.8,258.9L149.8,258.9z"/>
			<path class="st13" d="M151.5,250.4c0,0,1.5,2.9,1.9,3.3c0.5,0.3,3.1,1.7,4.5,1.4s2.3-3,2.3-3.3s-1.9-12.4-2.2-13.6
				c-0.3-1.3-2.4-7.4-2.9-6.7c-0.4,0.7-2.7,6.5-2.7,8s0.1,3.1,0.1,4c0.1,0.9-1,3.5-1,4.2C151.6,248.4,151.5,250.4,151.5,250.4
				L151.5,250.4z"/>
			<path class="st8" d="M147.7,261.9c-1.3,0-4.2,3.1-4.2,3.1s0.6,7.2,0.9,7.5c0.1,0.1,0.9,0.6,1.6,1l0.3-4.1c0,0,3.1-3.1,3.5-3.1
				s1.7,1.1,1.7,1.1l0.4,0.3c0-0.9-0.1-1.7-0.1-1.9C151.7,265.2,149,261.9,147.7,261.9L147.7,261.9z"/>
			<path class="st8" d="M149.8,258.9c0,0,2.2,1.7,3.2,2.9c0.1,0.1,0.3,0.3,0.3,0.5c0-0.8,0-1.7-0.1-2.2c-0.1-0.4,0.7-1.2,1.5-1.9
				c-0.7-0.7-1.4-1.3-1.7-1.5c-0.8-0.5-1.9-1-2.8-0.3C149.3,257.1,149.8,258.9,149.8,258.9L149.8,258.9z"/>
			<path class="st8" d="M151.5,250.4c0,0,1.5,2.9,1.9,3.3c0.3,0.2,1.4,0.8,2.6,1.3c-0.5-1.7-1.2-4-1.1-4.7c0.1-1,0.8-5.8,0.8-5.8
				l-0.8-4.5l0.1-8.1c-0.7,1.5-2.5,6.3-2.5,7.6c0,1.5,0.1,3.1,0.1,4c0.1,0.9-1,3.5-1,4.2S151.6,250.4,151.5,250.4L151.5,250.4z"/>
			<path class="st13" d="M113.4,186.6c-0.1-3.1-0.4-9-0.8-11.8c-0.6-4-1.4-4-1.3-5s0.6-2.8,0.3-4c-0.3-1.2-0.8-1.7-0.8-1.7
				l-1.7-14.6c-0.7,0.7-1.7,3.5-2.2,7.2c-0.6,4.8,0.8,7.5,0.8,8.1s-0.8,1.9-0.9,3.6c-0.1,1.6,1,2.9,1.2,3.9c0.1,1-0.4,5.2-0.2,7.9
				c0.2,2.7,1.2,5.8,2.7,6.3C111.5,186.7,112.5,186.8,113.4,186.6L113.4,186.6z"/>
			<path class="st13" d="M113.4,190.1c-2.4,0.1-4.9-0.8-4.9-0.8s-1.4,1.6-1.3,2.3s1.3,1.8,3.6,2.2c1,0.2,1.9,0.3,2.9,0.3
				c0.1-0.8,0.3-1.7,0.3-2.6c0-0.6-0.1-1.1-0.1-1.5C113.8,190.1,113.6,190.1,113.4,190.1L113.4,190.1z"/>
			<path class="st13" d="M110.1,197.5c-0.9-0.3-1.9,1-2.5,1.9s-0.3,5.6-0.3,5.6l-0.1,2.2c0,0,0.9,0.1,2-1.1c0.9-1,2.4-1.8,4.3-1.9
				c0.1-1,0.1-2.2,0.1-3.5c-0.1-1-0.1-1.7-0.1-2.3C112,198.2,111,197.7,110.1,197.5L110.1,197.5z"/>
			<path class="st13" d="M87,205.3c-0.3-2-0.8-3.3-1.3-4.1c-1.8,0.3-3-0.2-3.8-0.3c-0.9-0.2-1.9,1.2-2.4,2.1c-0.5,1,0.2,5.6,0.2,5.6
				l0.1,2.2c0,0,0.9,0,1.9-1.3s2.9-2.5,5.4-2.4C87.1,206.4,87,205.9,87,205.3L87,205.3z"/>
			<path class="st13" d="M78.7,195.9c0.2,0.7,1.4,1.6,3.6,1.8c0.9,0.1,1.9,0.1,2.8,0.1c-0.7-1.6-0.5-2.9-0.2-3.8
				c-0.1,0-0.3,0.1-0.5,0.1c-2.2,0.2-4.7-0.4-4.7-0.4S78.5,195.3,78.7,195.9z"/>
			<path class="st13" d="M78.5,184.3c0.3,2.8,1.3,6.1,2.9,6.5c1.6,0.3,3.7,0.1,4.4-0.6c0.8-0.6,0.8-1.3,0.8-1.3s0-0.5,0.1-1.2
				c-1.5,1.9-3.3,1-3.3,1s-2-13.4-2.2-13.9c-0.1-0.4,0.2-0.9,0.1-2.8c-0.1-1.9-0.3-2.8-0.6-3.3c-0.2-0.6,0.3-4.2,0.1-5.1
				c-0.2-0.9-0.9-11.3-0.9-11.3c-0.1-0.3-0.2-0.6-0.3-0.6c-0.5-0.9-1.9,2.6-2.5,7.7c-0.6,5.1,1,7.9,1,8.5s-0.7,2.1-0.8,3.8
				c-0.1,1.7,1,3,1.3,4C78.7,177,78.3,181.4,78.5,184.3L78.5,184.3z"/>
			<path class="st13" d="M53.6,197c0,0-2.3-6.9-2.5-9c-0.1-2.1-1-4.5-1-4.5s-0.9-0.6-1.6-2.7c-0.7-2.1-0.3-2.4-0.3-3.4
				c0-0.9-3.6-10.4-4-15.2c-0.6-0.2-1.3,3.2-1.1,7.7c0.3,4.9,2.2,7.3,2.3,7.9c0.1,0.6-0.3,2.1-0.1,3.8c0.2,1.6,1.5,2.7,1.8,3.6
				c0.3,1,0.6,5.3,1.3,7.9c0.7,2.6,2.2,5.6,3.7,5.7c1.5,0.1,3.5-0.5,4.1-1.2s0.5-1.3,0.5-1.3s0-0.3-0.1-0.9c0,0-0.8,0.9-1.8,1.3
				C53.7,197,53.6,197,53.6,197z"/>
			<path class="st13" d="M55.6,202.5c-2.1,0.8-4.6,0.9-4.6,0.9s-0.7,1.8-0.3,2.4c0.3,0.6,1.7,1.2,3.9,0.8c1.2-0.2,2.4-0.6,3.5-1
				c-0.2-1.1-0.6-2.4-1.1-3.2c-0.1-0.1-0.2-0.3-0.3-0.4C56.4,202.2,56,202.3,55.6,202.5L55.6,202.5z"/>
			<path class="st13" d="M55.5,209.8c-0.9,0-1.6,1.5-1.9,2.5c-0.3,1,1.3,5.4,1.3,5.4l0.4,2.1c0,0,0.9-0.1,1.7-1.7
				c0.6-1.2,1.9-2.5,3.8-3.1l-1.7-5.5C57.5,210,56.3,209.8,55.5,209.8z"/>
			<path class="st13" d="M37.9,228.1c-0.5-0.8-0.6-1.7-0.5-2.4c-0.1,0.1-0.2,0.1-0.3,0.2c-1.7,1-3.1,1-4,1.1s-1.4,1.7-1.5,2.8
				c-0.1,1,2,5.2,2,5.2l0.8,2c0,0,0.8-0.3,1.4-1.9c0.5-1.4,1.7-3.1,3.9-4C39.1,230,38.4,228.8,37.9,228.1L37.9,228.1z"/>
			<path class="st13" d="M31.8,223.2c1.2-0.2,2.4-0.6,3.4-1l-2-3.3c-0.1,0.1-0.3,0.1-0.4,0.1c-2.1,0.8-4.6,0.9-4.6,0.9
				s-0.7,1.8-0.3,2.4C28.2,223,29.6,223.6,31.8,223.2L31.8,223.2z"/>
			<path class="st13" d="M28.1,216.5c1.5,0,3.3-0.7,3.8-1.4c0.6-0.7,0.4-1.3,0.4-1.3s0-0.1-0.1-0.3c-1.3,0.5-2.5,0.6-2.5,0.6
				l-5.2-11.7c0,0,0-1.3-0.3-2.6c-0.3-1.4-1.7-2.4-1.7-2.4L22,194l-2.7-10.5c-0.5-0.7-0.8-1.3-1-1.4c-0.6-0.7-1.3,2.7-0.6,7.4
				c0.6,4.6,2.6,6.8,2.7,7.4c0.1,0.6-0.2,2,0.1,3.6c0.3,1.5,1.5,2.4,1.9,3.3c0.4,0.9,0.9,5,1.7,7.4S26.6,216.5,28.1,216.5
				L28.1,216.5z"/>
			<path class="st0" d="M289.1,342.1c0,0-1.6-4.6-1.5-6.6s-0.3-12.3-0.3-12.3s14.8-1.6,17.7-12.2c2.9-10.7-3.8-16.3-3.8-16.3
				s2.5-36.2,4.5-39.1c0.3-0.5,2.8-2.6,6.6-5.6c0.8,0.8,4,2.9,11.3,1.8c8.8-1.3,14.2-8.8,14.2-8.8s0.6,1.6,5.5,2.2
				c4.9,0.6,7.7-2.9,7.7-2.9s0,0,1.7,0.1s11.3-0.6,14.6-11.3c3.3-10.6,3.2-24.5,3.2-24.5s1-0.3,4-3.7c3.1-3.4,5.7-2.1,5.7-2.1
				s1,4.9-0.2,7.2s-3.4,5.7-4,9s-1.4,7,0.8,11.1c2.2,4.2,7.4,1.7,7.7-0.6c0.2-2.4-1.1-3.2,0.6-7.9s6.3-6.5,8.3-14.4
				c1.4-5.7,0-12.6-0.8-15.9c0,0,2.9-5.3-0.1-9.9c-2.9-4.6-7.7-4.7-7.7-4.7s-1.4-2.4-5.2-8c-3.8-5.6-7.7-16.2-7.7-16.2
				s35.3,21.2,38.4,22.7s6.7,7.8,6.7,7.8l0,0c0.2,0.2,0.3,0.3,0.4,0.6c0.9,1.8,6.5,10.1,6.4,13.6s-1.5,6.1-1.8,7.3
				c-0.1,0.5-1.1,1.5-2.5,3.1c-2.1,2.4-5,6.3-7,11.3c-3.2,8.5-2.7,13.5-1.8,12.8c0.8-0.7,8.2-10.6,14.1-15.6s8.9-5.4,8.9-5.4
				s6.5,1.3,9.3,3.4c2.8,2.1,8.6,7.9,8.8,9.3c0.3,1.5,0.1,4,0.1,4l-5.9,8.9c0,0,14.2-5.1,15-5.2c0.8-0.1,8.4,1.5,8.6,1.7
				c0.3,0.3,7.4,8.8,14.4,15.7c7,6.8,9.6,8.6,9.6,8.6l0.3,7.9l-9.7-4.2l-2.5,0.6c0,0-2.5-8.4-3.8-9.6c-1.3-1.2-15.5-6.1-15.5-6.1
				l-7.5,4c0,0-2.2-4-3.4-4.3c-1.2-0.4-5-0.8-8-4.2s-2.8-4-4-4.3c-1.3-0.3-10.9,3.6-21.4,12S397.8,269,397.8,269s-2.1,1.7-5,0.5
				s-4.4-2.4-4.3-3.8c0.1-1.3,2.4-8.6,2.4-10c0.1-1.4-1.9-7.9-8.1-13.6c-6.3-5.8-12-4.7-12-4.7s7.5,8.1,9.7,13.4
				c2.2,5.3,2.2,6,2,6.5c-0.2,0.6-4.1,12-4.1,12s-0.7,3-3.3,2.4c-2.6-0.6-47.3-17.5-47.3-17.5s-6.7-1.8-10.2,6.2
				c-3.6,8,8.3,12.6,8.3,12.6l2.6,23c0,0,0.5,1.7,2.1,2.7c1.7,0.9,23.3,11.1,23.3,11.1s1,0.6,2.5-1.4s4.2-6,4.2-6s0.8-1.7,0.6-4
				c-0.3-2.4-0.9-6.8-0.9-6.8s-0.2-1,0.6-0.6c0.8,0.3,16.8,7,16.8,7s-1.9,1.3-2.6,2.8c-0.6,1.5-0.8,3.4-1,3.8S357.7,321.2,333,332
				s-43.7,9.7-43.7,9.7L289.1,342.1z"/>
			<path class="st3" d="M393.6,195.9c-0.3-2.7-0.8-5.1-1.2-6.6c0,0,2.9-5.3-0.1-9.9c-2.9-4.6-7.7-4.7-7.7-4.7s-1.4-2.4-5.2-8
				c-3.8-5.6-7.7-16.2-7.7-16.2s8.4,5.1,17.5,10.4c6.9,6.8,14.9,14.5,17.3,15.7c4.4,2.2,12.1,17.5,12.1,17.5l-10.5-8.6L393.6,195.9
				L393.6,195.9z"/>
			<path class="st8" d="M331.6,269.5l-5.8-2.6c0,0-2.2-1-2.2-3.6s3.4-3.8,5.9-2.4s76.4,31,76.4,31s3.5,3.6,3.9,4.2s-0.8,1.2-1.4,1.2
				s-52.3-20.7-52.3-20.7l0.6,3.2l-5.2-2l3,19.8l-4-2.2l-4.2,5.7l-1.2-9.7l0.5-1.1l0.9,7.4l2.8-4.2l-3.9-22.3l-1.5,2.7l-3.5-1.7
				l3.3,20.5l-6.1-3.7l-3.5,4.6c0,0-0.8,0.3-0.8-0.3s-2.4-20.7-2.4-20.7s0.7-0.6,1.1-0.1s2.4,17.3,2.4,17.3s0.1,0.6,0.7,0
				s1.4-1.7,1.4-1.7s0.6,0.1,0-2.7c-0.5-2.9-2.6-19.4-2.6-19.4s-0.4-0.6-0.7,0.1c-0.3,0.7-1.3,3.6-1.3,3.6L331.6,269.5L331.6,269.5z
				"/>
			<path class="st13" d="M335.9,281.3l7,6.1l-1.2-7.3l-7-6.7C335.2,276.1,335.6,279,335.9,281.3L335.9,281.3z"/>
			<polygon class="st13" points="346.5,276.7 347.9,284.8 353.4,289.7 352.2,281.6 			"/>
			<path class="st14" d="M357.7,277.2c1.9,0.8,5.3,2.1,9.5,3.8l-2.2-5.6c-3.2-1.3-6.4-2.6-9.5-3.8L357.7,277.2z"/>
			<path class="st13" d="M372.3,278.4l2.2,5.6c2.1,0.8,4.2,1.7,6.3,2.5l-2.4-5.6C376.4,280,374.4,279.2,372.3,278.4z"/>
			<path class="st14" d="M396.7,290.1c0.1,1-0.1,1.9-0.3,2.6c6.8,2.7,11.8,4.7,12,4.7c0.6,0,1.8-0.6,1.4-1.2s-3.9-4.2-3.9-4.2
				s-3.9-1.5-9.9-4C396.4,288.6,396.6,289.3,396.7,290.1z"/>
			<path class="st13" d="M384.3,313.2c0,0-1.2-4.6-0.1-7.8c1-3.2,7.7-3.2,8.8-2.9c1,0.4,0.1,1.7-0.3,1.9c-0.5,0.2-3.7,1.7-4.7,3.8
				c-1,2.1-0.8,5.3-1,5.5s-2.1,0.2-2.4,0.1C384.1,313.7,384.2,313.2,384.3,313.2L384.3,313.2z"/>
			<path class="st13" d="M391.8,317.8c0,0-1.5-5.2-0.1-7.6c1.5-2.5,6.3-2.9,6.8-2.9c0.6,0.1,1.1,3,3.5,3.6s3.6,1.9,4.3,3
				c0.7,1.1,1.4,4.2,1.7,4.9c0.4,0.6,1.2,1.3,0.7,1.6s-1.5,0.2-2.6,0.6c-1,0.5-4.5,1-5.7,0.6c-1.3-0.5-2.2-2-4.2-2.3
				c-2.1-0.3-3.6-0.1-4-0.3c-0.5-0.2-0.6-1.3-0.6-1.3L391.8,317.8L391.8,317.8z"/>
			<path class="st11" d="M401.7,281c0,0,9.8-14.5,18.4-23.3c8.6-8.8,14.6-12.5,15.5-12.3s2.6,3.7,6.5,5.2c4,1.5,8.4,2.4,8.4,3
				c0.1,0.6,0.7,6.9,0.6,10.7c-0.1,3.8,0.7,2.9,2.5-1.7c1.7-4.5,2.2-6.8,2.4-7.2c0.3-0.4,7.7-2.4,8.7-2s9.5,5.2,9.5,5.2l2.4,7.6
				l-1.9,9.6c0,0,3.1-2.4,4.9-4.5c1.7-2.1,1.7-2.4,2.3-2.5c0.6-0.1,12,4.9,12.4,5c0.5,0.1,4.2,8.4,4.7,9.6c0.6,1.2,0.1,6.8,1.2,6.3
				c1.1-0.4,3.5-2.7,4.2-2.5s5.6,3.1,5.8,4c0.1,0.9-3.9,26.7-3.9,26.7l-1.5-2.2l-4.5,2.6l-1.3-2.2l-4.3,0.6c0,0,4.2-11.6,4.2-12.9
				s-1.4-6.6-1.7-6.1c-0.3,0.6-3.1,8.1-3.1,8.1l-7.5,9.8l-1.1-1.8l-3.1,0.3l-0.8-5.5l-4.4,3.1l-1.3-1.9l-3.7,1.2
				c0,0,2.7-13.5,2.7-14.9s-1.7-8.6-1.8-8.1c-0.2,0.5-1.9,7.9-2.2,8.6c-0.2,0.6-4.1,6.8-4.1,6.8l-1.8-2.9l-4.3,2.2l-2-1.7l-3.3,0.3
				c0,0-0.3-4-2.3-4.2s-3.4,0.8-3.4,0.8l-2-3.2c0,0,1.9-8.3,1.9-12.9c0-4.7-0.1-4.5-0.7-3.6s-3.2,8.6-3.8,9.4
				c-0.6,0.8-6.8,8.3-7.2,8.3c-0.4,0-2.9-3.6-2.9-3.6l-4,0.9l-0.6-3.5l-2.4,0.6l-1.9-5.5l-5.2,3.1l-2.8-6.3c0,0,2.2-7.7,2.4-9.3
				c0.3-1.7-0.6-9.7-0.8-9.1c-0.3,0.6-3.2,2.2-7.9,8.8c-4.7,6.7-7.4,11.6-8.4,11.9s-2-0.1-2.3-1c-0.3-0.8,0.7-1.7,0.7-1.7L401.7,281
				z"/>
			<path class="st13" d="M420.4,297.1c0,0,3.5,0.1,6.8,1.8c3.2,1.7,4.6,3.1,4.8,3s1.9-0.3,2.1-1.5c0.1-1.1-2.2-4.5-5.8-6.2
				c-3.6-1.7-7-0.8-7.7-0.1c-0.7,0.7-1,0.7-0.9,1.6C419.8,296.7,420.4,297.1,420.4,297.1L420.4,297.1z"/>
			<path class="st13" d="M448.9,306.4c0,0,0.5-1.7,2.2-1.6s4.7,1.5,6.3,1.7c1.5,0.2,3.8,0.3,4.1,0.9c0.4,0.6,0.5,2.9,0.1,3.1
				s-3.1,0.1-3.9,0.2s-2.2,0.6-3.7,0.3c-1.5-0.3-1.7-1.3-3.3-2.1c-1.5-0.8-2.3-1.1-2.4-1.7C448.2,306.7,448.9,306.4,448.9,306.4
				L448.9,306.4z"/>
			<path class="st13" d="M472.6,315.2c0,0,4.7,0.3,6.4,1.3c1.7,1,3.6,3.1,3.6,4.4c-0.1,1.3-1.3,1.7-1.3,1.7s-2.2-1.7-3.1-2.1
				c-0.8-0.3-3.1-0.3-3.7-0.6s-1-1-1.7-1.7c-0.7-0.6-1.5-0.6-1.6-1.3C471,316.2,472.5,315.1,472.6,315.2L472.6,315.2z"/>
			<path class="st13" d="M494.1,322.4c0,0,2.3-0.1,2.7,0.2c0.4,0.3,0.3,1,1,1.2c0.7,0.1,1.7,0.2,1.9,0.3s1.5,1.4,1.9,1.3
				s1.5-1.9,1.5-2.4c-0.1-0.5-1-1.5-1.3-1.7c-0.3-0.1-1-0.6-1.9-1.3c-0.9-0.6-3.4-0.3-4.5,0C494.3,320.6,494.2,322.4,494.1,322.4
				L494.1,322.4z"/>
			<path class="st13" d="M419.3,301.3c0,0-1.2,1.2-1.1,2.2s0.1,3.2-0.3,4.1c-0.5,0.9-1.7,2.2-1.7,2.2s-0.8,4,0.8,7.4
				c1.7,3.3,6.5,1.5,8.5-0.6c1.9-2.1,0.4-4.2,1.7-5.5c1.3-1.3,2.9-2.9,2.5-3.8c-0.5-0.8,1-2.5-3.6-4.9
				C421.5,300.2,419.3,301.3,419.3,301.3L419.3,301.3z"/>
			<path class="st13" d="M448.2,313c0,0-3.5,0.9-4,2.7c-0.5,1.7,0,3.1-0.8,4c-0.8,0.8-4.7,3.8-4.9,4.7c-0.2,1,0.6,5.9,3,6.9
				c2.5,1,6.8,0.1,7.9-1.2c1.1-1.3,1.3-5.3,2.2-6.3c0.8-1,2.8-2.2,2.9-3.4c0.2-1.2-0.1-4.8-1.6-5.8S448.1,313,448.2,313L448.2,313
				L448.2,313z"/>
			<path class="st13" d="M473,322.9c0,0-3.2,1-4,2.2s-0.6,2.8-1.2,3.6c-0.6,0.8-1.9,2-1.9,2l-0.1,2.6c0,0-2.9-1-3.3-1.2
				c-0.4-0.1-4.8-0.3-4.9,0.1c-0.1,0.5-0.9,4.8,4.4,6.4c5.3,1.7,8.6,1.7,8.6,0.6s-0.3-2,0.6-2.4c0.8-0.4,4.9-2.6,5.5-4
				s2.2-3.6,1.7-6.1C477.9,324.2,473.1,322.9,473,322.9L473,322.9z"/>
			<path class="st13" d="M492.7,325.1c0,0-1.9,1.5-2,2.3s0.2,1.7-0.8,2.5s-2.1,1.3-2.4,1.7c-0.3,0.4-1.2,2.6-1.3,3.3
				c-0.1,0.7,2.6,1.7,7-0.6c4.4-2.3,5.4-5.7,4.9-6.5s-1.9-0.7-2.4-1.3C495,326.1,492.7,325.2,492.7,325.1L492.7,325.1z"/>
			<path class="st3" d="M405.6,330c0,0,6.4-1.6,7.6-1.9c1.2-0.4,2.4-2.2,2.4-2.2s1.7,0.7,2.6,1s2.8,0.2,2.8,0.2s-0.3,7.7,15.9,16.4
				c16.2,8.6,39.5,6.1,43.7,4.9c4.1-1.3,5.6-2.3,5.6-2.3s-3.6,11.5-33,8.4s-39.5-20.7-40.7-21.4S405.6,330.1,405.6,330L405.6,330z"
				/>
			<path class="st3" d="M327.7,254.6c0,0,44.6,16.8,47.3,17.5c2.6,0.6,3.3-2.4,3.3-2.4s4-11.4,4.1-12c0.2-0.6,0.2-1.3-2-6.5
				c-2.2-5.3-9.7-13.4-9.7-13.4s5.8-1,12,4.7c6.3,5.8,8.2,12.3,8.1,13.6c-0.1,1.4-2.4,8.6-2.4,10c-0.1,1.3,1.4,2.6,4.3,3.8
				c2.9,1.2,5-0.5,5-0.5s9.8-13.6,20.3-22.1s20.1-12.2,21.4-12c1.3,0.3,1,0.9,4,4.3c3,3.4,6.8,3.8,8,4.2s3.4,4.3,3.4,4.3l7.5-4
				c0,0,14.2,4.9,15.5,6.1c1.3,1.2,3.8,9.6,3.8,9.6l2.5-0.6l9.7,4.2l-0.1-4c-7.6-5.2-26.6-24.2-32.2-29.8c-0.3-0.1-0.5-0.1-0.6-0.1
				c-0.8,0.1-15,5.2-15,5.2l2.9-4.5l0,0c0.1-0.1,1.6-2.5,0.1-5.3c-1.1-2.1-12.3-10.2-18.5-14.7c-1.5,0.8-3.4,2.1-5.8,4.1
				c-5.9,5-13.3,14.8-14.1,15.6c-0.8,0.7-1.4-4.3,1.8-12.8c1.9-5.1,4.9-8.9,7-11.3l-0.8-11.6L407.4,179c-4.2,2.3-15,10.4-15,10.4
				c0.8,3.3,2.2,10.2,0.8,15.9c-1.9,7.9-6.5,9.7-8.3,14.4c-1.7,4.7-0.4,5.5-0.6,7.9s-5.5,4.8-7.7,0.6s-1.4-7.9-0.8-11.1s2.9-6.7,4-9
				c1.2-2.3,0.2-7.2,0.2-7.2s-2.6-1.3-5.7,2.1c-3.1,3.4-4,3.7-4,3.7s0.1,13.9-3.2,24.5c-3.3,10.6-12.9,11.3-14.6,11.3
				C351,242,351,242,351,242s-2.8,3.5-7.7,2.9s-5.5-2.2-5.5-2.2s-5.4,7.5-14.2,8.8c-7.3,1.1-10.4-1-11.3-1.8
				c-3.8,3.1-6.3,5.2-6.6,5.6c-0.8,1.3-1.7,8.1-2.5,15.8c0.9-1.2,1.7-2.6,2-4.5c1.2-6.4,7.9-11.7,8.8-11.3c0.9,0.3-4.5,4.2-3.8,11
				s8.8,11.6,8.8,11.6s1.8,22.9,2.8,24.8c0.9,1.8,7.5,4.7,7.5,4.7s-1.6,3.6-8.6,7.6s-20.9,10.1-20.9,10.1s2.5,0.9,14.6-1.3
				c12.1-2.2,19.7-6.7,19.7-6.7s1.9,5.4,0.6,8.4s-23.3,13.9-23.3,13.9c6.3-1.5,13.6-3.7,21.4-7.1c24.7-10.8,40.9-27,41.1-27.4
				s0.4-2.4,1-3.8c0.6-1.5,2.6-2.8,2.6-2.8s-16-6.7-16.8-7s-0.6,0.6-0.6,0.6s0.6,4.5,0.9,6.8c0.3,2.4-0.6,4-0.6,4s-2.7,4-4.2,6
				s-2.5,1.4-2.5,1.4S332,299.9,330.4,299c-1.7-0.9-2.1-2.7-2.1-2.7l-2.6-23c0,0-11.8-4.6-8.3-12.6c3.5-8,10.2-6.2,10.2-6.2
				L327.7,254.6z"/>
			<path class="st0" d="M398.9,224.5c5-3.7,5-3.7,5-3.7s1.7-5.4,3.1-8.8c1.5-3.4,1.8-3.6,1.8-3.6s-2.9-7.7-6.5-10.4
				s-4.9-1.7-4.9-1.7s0.6,3.2-2.2,7.2c-0.8,1-1.5,1.9-2.3,2.4c-2,7.1-6.3,9.1-8,13.5c-1.7,4.7-0.4,5.5-0.6,7.9
				c-0.1,1.3-1.5,2.5-3.3,2.9c0.1,0.8,0.2,1.5,0.4,1.9c1,2.4,4.3,5.4,5.2,5.4S393.9,228.2,398.9,224.5L398.9,224.5z"/>
			<path class="st0" d="M410,227.5c0,0-6.6,5-9.7,10.4s-4.2,10.8-3.3,11.3c0.9,0.6,9.1-7.2,16.9-11.6s12-5.9,12-5.9
				s-0.7-2.2-4.6-6.1c-1.5-1.5-2.9-2.6-4.1-3.6c-3.3,3.8-6.1,7.4-6.5,7.8C410.2,230.1,409.9,229.2,410,227.5L410,227.5z"/>
			<path class="st8" d="M397.6,314.4c-2.8-2.2-5-3.1-6.3-3.5c-0.8,2.6,0.4,6.8,0.4,6.8s0.1,1,0.6,1.3s1.9,0,4,0.3s3,1.8,4.2,2.3
				c1.3,0.5,4.7-0.1,5.7-0.6s2.1-0.4,2.6-0.6C405.8,319.1,400.5,316.7,397.6,314.4L397.6,314.4z"/>
			<path class="st8" d="M386.8,313.7c0.2-0.2,0-3.4,1-5.5c0.1-0.1,0.1-0.3,0.3-0.5c-0.8-0.1-1.7-0.6-2.6-1.7c-0.4-0.6-0.7-1-1-1.5
				c-0.2,0.3-0.3,0.6-0.5,0.9c-1,3.2,0.1,7.8,0.1,7.8s-0.1,0.6,0.2,0.6C384.7,313.9,386.6,313.9,386.8,313.7L386.8,313.7z"/>
			<path class="st8" d="M418.2,303.5c0.1,1,0.1,3.2-0.3,4.1c-0.5,0.9-1.7,2.2-1.7,2.2s-0.8,4,0.8,7.4c0.5,1,1.3,1.5,2.2,1.7
				c0.9-1.5,1.8-3.1,2.2-4c0.8-1.9,0.3-4.3,1.4-6.2c1-1.8,2.2-1.4,2.8-3.9c0.3-1.2,0.2-2,0.1-2.7c-4.2-2-6.3-1-6.3-1
				S418.2,302.4,418.2,303.5L418.2,303.5z"/>
			<path class="st8" d="M420.4,297.1c0,0,3.5,0.1,6.8,1.8c0.1,0,0.1,0.1,0.1,0.1c0.7-0.8,1.5-1.6,1.7-2.4c0.2-0.6,0.3-1.3,0.3-1.9
				c-0.3-0.2-0.7-0.4-1-0.6c-3.6-1.7-7-0.8-7.7-0.1c-0.7,0.7-1,0.7-0.9,1.6C419.8,296.6,420.3,297,420.4,297.1L420.4,297.1z"/>
			<path class="st8" d="M451.1,304.9c-1.7-0.1-2.2,1.6-2.2,1.6s-0.6,0.3-0.6,0.8c0.1,0.6,0.8,0.8,2.4,1.7c1.2,0.6,1.6,1.4,2.4,1.8
				c0.9-0.4,1.9-1,2.4-1.5c0.4-0.6,0.6-1.9,0.4-3.1C454.4,305.8,452.4,305,451.1,304.9L451.1,304.9z"/>
			<path class="st8" d="M448.2,313c0,0-3.5,0.9-4,2.7c-0.5,1.7,0,3.1-0.8,4c-0.8,0.8-4.7,3.8-4.9,4.7c-0.2,1,0.6,5.9,3,6.9
				c0.2,0.1,0.4,0.1,0.6,0.2c1.8-3.8,4.9-10,5.3-10.4c0.6-0.6,2.4-1.6,3.3-3.9c0.4-1,0.6-2.3,0.8-3.3C450,313.3,448.2,313,448.2,313
				L448.2,313z"/>
			<path class="st8" d="M468.9,325.1c-0.8,1.1-0.6,2.8-1.2,3.6c-0.6,0.8-1.9,2-1.9,2l-0.1,2.6c0,0-2.9-1-3.3-1.2
				c-0.4-0.1-4.8-0.3-4.9,0.1c0,0.1-0.1,0.8-0.1,1.6c0,0,2.8,1.5,5.6,2c2.9,0.6,3.6-0.6,4-0.6c0.5,0,2.2-0.3,2.6-0.9
				s1.1-3.8,1.1-3.8l5-6.4c-1.4-0.8-2.8-1.1-2.8-1.1S469.8,324,468.9,325.1L468.9,325.1z"/>
			<path class="st8" d="M472.9,318.3c1-0.4,2.4-1.2,3.8-2.6c-1.9-0.3-4.1-0.5-4.1-0.5s-1.5,1.1-1.4,1.8
				C471.4,317.7,472,317.7,472.9,318.3L472.9,318.3L472.9,318.3z"/>
			<path class="st8" d="M490.6,327.5c-0.1,0.8,0.2,1.7-0.8,2.5s-2.1,1.3-2.4,1.7c-0.3,0.4-1.2,2.6-1.3,3.3c-0.1,0.5,1,1,2.8,0.8
				c0.7-1.4,1.5-2.9,1.6-3.1c0.3-0.6,3.3-2.1,3.8-3c0.2-0.5,0.8-1.8,1.3-2.9l-0.1-0.1c-0.5-0.6-2.9-1.4-2.9-1.4
				S490.8,326.7,490.6,327.5L490.6,327.5z"/>
			<path class="st8" d="M496.8,322.6c0.4,0.3,0.3,1,1,1.2c0.2,0.1,0.4,0.1,0.6,0.1c0-0.3,0.1-0.8,0.2-1.2c0.3-1.1,0.8-1.9,1.3-2.4
				c-0.1,0-0.1-0.1-0.1-0.1c-0.9-0.6-3.4-0.3-4.5,0c-1.1,0.4-1.2,2.2-1.2,2.2S496.4,322.4,496.8,322.6L496.8,322.6z"/>
			<path class="st9" d="M481.7,308.7c6.3-11.4,9-23.7,8.9-24.8s-0.8-3.6-1.2-4.2c-0.3-0.7-7.7-4.2-8.5-4.2c-0.8,0.1-2.6,1.7-2.6,1.7
				l-4.5,13.3c0.5,2.1,1,4.9,1,5.6c0,1.4-2.7,14.9-2.7,14.9l3.7-1.2l1.3,1.9L481.7,308.7L481.7,308.7z"/>
			<path class="st9" d="M499.7,292.1l-1.9,6.6c0.5,1.5,1.2,4.3,1.2,5.2c0,1.3-4.2,12.9-4.2,12.9l4.3-0.6l1.3,2.2
				c0,0,2.6-7.5,4.5-16.6c1.7-9.1,1.2-9.7,1.2-9.7s-2.2-1.2-2.8-1.5C502.6,290.3,499.7,292.1,499.7,292.1z"/>
			<path class="st9" d="M465.6,290.7c1.9-5.9,4.2-18.2,4.2-19.1s-2-4.7-2-4.7l-8.1-4.2c0,0-2.6,1.1-3.4,1.5c-0.8,0.3-0.3,0.8-1,1.9
				s-3.3,3.2-4,4.2s-1.9,7.2-1.9,7.2c0.2,0.1,0.3,1,0.3,4.1c0,4.7-1.9,13-1.9,13l2,3.2c0,0,1.4-1,3.4-0.8s2.3,4.2,2.3,4.2l3.3-0.3
				l3.9-2.9C462.6,298,463.6,296.6,465.6,290.7L465.6,290.7z"/>
			<path class="st9" d="M439.5,276.3c3.7-10.9,3.5-19.8,3.5-19.8s-2.6-0.4-4.7-1.1c-2.2-0.7-5.9-3.6-6.3-3.8
				c-0.5-0.2-7.3,1.5-7.3,1.5c-1.4,1.3-2.9,2.8-4.6,4.5c-8.6,8.8-18.4,23.3-18.4,23.3s-1,0.9-0.7,1.7c0.3,0.8,1.3,1.3,2.3,1
				s3.7-5.2,8.4-11.9c4.7-6.7,7.7-8.4,7.9-8.8c0.3-0.6,1,7.5,0.8,9.1c-0.3,1.7-2.4,9.3-2.4,9.3l2.8,6.3l5.2-3.1l1.9,5.5l2.4-0.6
				l0.6,3.5C430.8,293.1,435.8,287.3,439.5,276.3L439.5,276.3z"/>
			<path class="st9" d="M263.2,36.1c0,0-1.4,6.4-0.6,8.5c0.8,2.2,2.2,2.8,2.2,3.8c-0.1,1.1-0.8,3.4,2.3,4.5c3.1,1.1,6.8-1,7.4-3.1
				c0.7-2.2-0.8-3.1-0.8-4.3c0.1-1.3,1.3-1.7,1.3-3.8c-0.1-2.2-2.6-8.1-5.2-8.6c-2.5-0.6-6,0.5-6.3,1.6
				C263.3,35.8,263.2,36.1,263.2,36.1L263.2,36.1z M228.7,56c0,0,0.6,3.6,2.4,5.8c1.7,2.2,2.1,0.6,3.1,2.6c1,2,4.7,2.6,7.2-1.2
				c2.5-3.8,1.3-5.2,0.1-5.7c-1.2-0.4-0.3-2.1-1.9-4c-1.6-1.9-4.2-3.5-5.3-3.7c-1.2-0.3-3.2,1-4.5,2.8C228.4,54.5,228.7,56,228.7,56
				z M244.7,41.9c0,0-0.1,6.6,1.1,8.5c1.3,1.9,2.6,2.2,2.9,3.3c0.1,1.1-0.1,3.6,3.1,4c3.3,0.4,6.4-2.5,6.6-4.8
				c0.3-2.3-1.4-2.9-1.6-4c-0.2-1.3,1-1.9,0.6-4s-4.1-7.3-6.7-7.3s-5.8,1.8-5.8,3C244.7,41.6,244.7,41.9,244.7,41.9L244.7,41.9z"/>
			<path class="st11" d="M266.2,37c-0.3,1.5-1,5.4-0.7,6.5c0.8,1.9,2.5,2.5,2.4,5.2c0,0.3-0.1,0.9-0.1,1.3c0.1,0.1,0.3,0.1,0.3,0.1
				c0.7,0.3,1.5,0.1,2.1-0.1c0.3-0.1,1.1-0.6,1.3-1c0-0.1,0-0.1,0-0.1c0-0.1-0.1-0.3-0.2-0.4c-0.3-0.6-0.6-1.2-0.7-1.9
				c-0.1-0.3-0.1-0.6-0.1-0.9c0-0.6,0.1-1.2,0.4-1.7c0.3-0.6,0.6-1,0.8-1.5c0.1-0.1,0.1-0.2,0.1-0.3c-0.1-1.2-1.8-4.9-2.9-5.6
				c-0.7-0.1-1.9,0-2.6,0.3c-0.1,0.2-0.1,0.3-0.1,0.6L266.2,37z M233.9,60.2c1.5,0.6,2.3,1.2,3.1,2.7c0.6,0.2,1.5-1,1.7-1.3
				s0.6-1,0.8-1.5c-0.3-0.2-0.7-0.6-0.9-0.9c-0.7-0.9-0.8-1.7-1-2.8c-0.1-0.3-0.1-0.5-0.3-0.8c-0.6-0.8-2.2-2.1-3.3-2.6
				c-0.6,0.3-1.4,1-1.7,1.5c-0.1,0.1-0.3,0.5-0.3,0.8v0.1c0.2,1.3,0.9,3.3,1.7,4.4C233.7,59.8,233.9,60,233.9,60.2L233.9,60.2z
				 M251.9,54.5c0.1,0,0.2,0.1,0.3,0.1c0.7,0.1,1.5-0.3,2-0.7c0.3-0.3,1-0.9,1.1-1.3c0-0.1,0-0.1,0-0.1c-0.1-0.1-0.2-0.3-0.3-0.3
				c-0.4-0.6-0.8-1-1-1.7c-0.1-0.3-0.2-0.7-0.3-1c-0.1-0.6-0.1-1.2,0-1.7c0.1-0.7,0.3-1.1,0.6-1.7c0.1-0.1,0.1-0.3,0-0.4
				c-0.3-1.1-2.6-4.3-3.8-4.9c-0.7,0.1-1.9,0.4-2.6,0.9c0,0.2-0.1,0.5-0.1,0.7c0,1.5,0.1,5.6,0.6,6.5c0.8,1.3,2.2,1.7,2.9,3.3
				c0.2,0.3,0.3,0.8,0.3,1.2C251.8,53.5,251.8,54.2,251.9,54.5z"/>
			<path class="st15" d="M247.9,23.1c-2.2,2.9-0.2,8.4,3.1,8.3c1.7-0.1,4.2-1.9,12.3-3.2c7.4-1.1,12.8-0.8,13.6-0.7v-9.3
				C268.3,18.2,255.3,18.5,247.9,23.1L247.9,23.1z"/>
			<path class="st11" d="M241,28.2c0,0-0.2,1,0.7,2.6c0.9,1.7,2.1,2.4,2.1,2.4s-7.4,5.2-10.5,8.3s-4,4.3-4,4.3s-1.7,0.1-3.1-1.3
				c-1.4-1.5-0.8-3.1-0.8-3.1s3-4.1,7.9-7.9C238.1,29.6,240.9,28.1,241,28.2L241,28.2z"/>
			<path class="st9" d="M221.5,48.2c-3.6,3.1-10.2,19.2-9.7,23.7c0,0,1.3,1.6,2.2-1c1-2.6,1.3-6.1,4-11.8c2.8-5.7,5.1-8.8,5.4-9.7
				c0.4-0.9-0.6-1.9-1.1-1.9C221.9,47.5,221.5,48.1,221.5,48.2L221.5,48.2z"/>
			<path class="st9" d="M222.1,66.5c0,0-0.8,1.7-1.3,5.2c-0.5,3.6,1,4.8,2.6,5.2c1.6,0.3,3.8-4,4.5-5.5c0.8-1.5-1.5-4.9-3.1-5.6
				C223,65,222.1,66.4,222.1,66.5L222.1,66.5z"/>
			<path class="st16" d="M182.9,53.6L182.9,53.6c1.4,0,2.6,0.7,3.4,1.7c-1.6,0.1-2.9,1.5-2.9,3.2v3.9c0,1.7,1.3,3,2.9,3.2
				c-0.8,1-2,1.7-3.4,1.7l0,0c-2.4,0-4.2-1.9-4.2-4.2v-5.2C178.7,55.6,180.6,53.7,182.9,53.6L182.9,53.6z"/>
			<path class="st16" d="M195.1,27.9L195.1,27.9c1.3,0,2.4,0.6,3.1,1.5c-1.4,0.1-2.6,1.4-2.6,2.9v3.5c0,1.5,1.1,2.6,2.6,2.9
				c-0.7,1-1.8,1.5-3.1,1.5l0,0c-2.1,0-3.8-1.7-3.8-3.8v-4.6C191.3,29.7,193,27.9,195.1,27.9z"/>
			<path class="st16" d="M170.6,86L170.6,86c1.2-0.4,2.4-0.1,3.4,0.5c-1.3,0.6-1.9,2.1-1.5,3.5l1.1,3.3c0.5,1.4,1.9,2.2,3.3,1.9
				c-0.3,1.1-1.2,2.1-2.4,2.4l0,0c-1.9,0.7-4.2-0.4-4.8-2.4l-1.5-4.4C167.6,88.8,168.7,86.6,170.6,86z"/>
			<path class="st11" d="M186.9,60.6c-0.7,0.1-1.3-0.5-1.3-1.2c-0.1-0.7,0.5-1.3,1.2-1.3c0,0,5.2-0.3,9.5-4c2-1.8,3.3-3.6,4.5-5.2
				c1.4-2,2.7-3.9,5.3-5.7c4.9-3.6,7.4-3.3,7.4-3.3c0.7,0.1,1.2,0.6,1.1,1.3s-0.6,1.2-1.3,1.1c0,0-1.6-0.1-5.7,2.9
				c-2.2,1.6-3.4,3.3-4.7,5.2c-1.3,1.7-2.6,3.6-4.8,5.6C193,60.2,186.9,60.6,186.9,60.6L186.9,60.6z"/>
			<path class="st17" d="M222.3,32.7c0.7,0.3,1,1,0.7,1.7s-1,1-1.7,0.7c0,0-2.5-1.1-9.5-1.3c-6.9-0.3-9.7,1.3-9.7,1.3
				c-0.6,0.3-1.5,0.1-1.8-0.6c-0.3-0.6-0.1-1.5,0.6-1.8c0,0,3.5-1.9,11.1-1.6C219.5,31.5,222.4,32.8,222.3,32.7L222.3,32.7z"/>
			<path class="st18" d="M174.5,97.5c1.2-0.4,2.1-1.3,2.4-2.4c-1.4,0.3-2.9-0.5-3.3-1.9l-0.8-2.2c-1.5,0.8-2.8,1.9-3.5,3.1l0.3,1
				C170.4,97.1,172.6,98.2,174.5,97.5L174.5,97.5z"/>
			<path class="st18" d="M178.6,63.1c0,2.4,1.9,4.2,4.2,4.2c1.4,0,2.6-0.7,3.4-1.7c-1.6-0.1-2.9-1.5-2.9-3.2v-2.3
				c-1.3-0.3-2.8-0.5-4.3-0.5c-0.2,0-0.3,0-0.6,0L178.6,63.1L178.6,63.1z"/>
			<path class="st18" d="M191.3,36.3c0,2.1,1.7,3.8,3.8,3.8c1.3,0,2.4-0.6,3.1-1.5c-1.4-0.1-2.6-1.4-2.6-2.9v-2
				c-0.4-0.1-0.8-0.1-1.2-0.1c-1.1,0-2.2,0.1-3.1,0.5V36.3L191.3,36.3z"/>
			<path class="st17" d="M178.2,90.4c-0.8,0.3-1.6-0.1-1.9-0.9c-0.3-0.8,0-1.6,0.8-1.9c0,0,6.3-2.4,11.7-7.1
				c5.4-4.6,8.5-12.3,8.5-12.4c0.3-0.8,1.2-1,1.9-0.7c0.8,0.3,1.1,1.3,0.8,1.9c0,0-3.4,8.4-9.3,13.4C185,87.8,178.2,90.4,178.2,90.4
				L178.2,90.4z"/>
			<path class="st8" d="M204.1,85.2c0,0,0.2,6.3,0.9,7.1c0.7,0.9,1.3,1,1.3,1s1.6-10.2,2.2-11.8c0.6-1.6,3.8-1.4,3.8-1.4l-0.7,8.7
				c0,0-1-0.3-1.7-0.2c-0.7,0.1-1.1,0.3-1,0.4s1.9,1.4,2.3,2.3s-0.1,3.9-0.1,3.9s-1.3-0.3-2.2-0.3s-1.3,0.3-1.1,0.4s2,1.3,2.6,2.4
				s0.1,3.7,0.1,3.7s-0.8,0.3-2,0.5s-1.6,0.4-1.2,0.6c0.4,0.2,3.1,1.4,3.1,1.6s-0.3,4.8-0.3,4.9s-1.6,0.6-3.2,0.3
				c-1.6-0.3-2.2-1.8-2.2-1.8s1.2-9,0.9-8.8c-0.2,0.1-2.4-0.7-4,13.4c-1.7,14.2-0.2,22.8-0.2,22.8s-2.2,0.6-3.1-3.1
				c-0.8-3.7,0.5-17.5,0.7-20.8c0.3-3.3,0.6-4.3,0.6-4.3s-1.9,3.2-3.8,3.6c-2,0.4-3.7-2.2-3.7-2.2s-1.3,14.5-1.1,17.3
				c0.1,2.9,3.2,5.2,3.2,5.2s-2.9-0.4-4.9-3c-2-2.6-1.1-22.5,1-29.8c2-7.4,6.5-10.3,9.1-11.2C201.8,85.8,204.1,85.2,204.1,85.2
				L204.1,85.2z"/>
			<path class="st9" d="M204.3,113.6c0,0-0.3,6.8-0.1,7.7c0.2,0.9,5.7,2.6,6.9,2.8c1.2,0.2,0.9-2.1,0.6-2.4
				c-0.3-0.3-1.7-0.8-2.6-1.8c-1-1-0.9-2.4-0.9-2.4s1.4,1,2.8,1.1c1.3,0.1,1.3-2.2,1.2-3.7s-2.4-2.3-4.2-2.4
				S204.4,113.6,204.3,113.6L204.3,113.6L204.3,113.6z"/>
			<path class="st9" d="M206.2,138c0,0,0.6,2.2,1.7,2.6c1.2,0.3,4,0.9,4,0.6c0-0.2-1-2.9-1.7-3c-0.6-0.2-4.5-1.1-4.5-1
				S206.2,138,206.2,138L206.2,138z"/>
			<path class="st9" d="M208.5,81.6c-0.6,1.6-2.2,11.8-2.2,11.8l-0.7,5.5c0.2-0.1-0.9,8.8-0.9,8.8s0.6,1.5,2.2,1.8
				c1.6,0.3,3.2-0.1,3.2-0.3c0-0.1,0.3-4.7,0.3-4.9c-0.1-0.2-2.7-1.4-3.1-1.6c-0.4-0.2,0-0.4,1.2-0.6s2-0.5,2-0.5s0.4-2.6-0.1-3.7
				c-0.6-1.1-2.4-2.4-2.6-2.4c-0.1-0.1,0.3-0.3,1.1-0.4s2.2,0.3,2.2,0.3s0.4-2.9,0.1-3.9c-0.4-0.9-2.2-2.2-2.3-2.3s0.3-0.3,1-0.4
				s1.7,0.2,1.7,0.2l0.7-8.7C212.3,80.2,209,80,208.5,81.6L208.5,81.6z"/>
			<path class="st11" d="M195.4,96.9c-1.8,0.6-3.9,2.1-5.8,3.8c-1.6,8.6-2.2,24.8-0.3,27.1c2,2.6,4.9,3,4.9,3s-3.1-2.4-3.2-5.2
				c-0.1-2.9,1.1-17.3,1.1-17.3s1.7,2.6,3.7,2.2s3.8-3.6,3.8-3.6s-0.3,1-0.6,4.3s-1.6,17.1-0.7,20.8c0.8,3.7,3.1,3.1,3.1,3.1
				s-1.5-8.6,0.2-22.8c0.3-3.1,0.8-5.6,1.1-7.4c-0.1-0.5-0.1-1-0.2-1.7C202,98.5,200.2,95.3,195.4,96.9L195.4,96.9z"/>
			<path class="st9" d="M235.7,73.9c0,0-0.6,2.9-3.3,5s-5.6,5.4-5.8,8.6s1.6,4.3,1.6,4.3l3.4-0.9c0,0-1.9-3.2-1.3-5.3
				c0.6-2.1,3.6-4.1,5.2-7.1C237.1,75.7,235.7,73.9,235.7,73.9L235.7,73.9z"/>
			<path class="st13" d="M227.5,96.5c0,0,8.8-2.6,9.7-2.6c0.8,0.1,9.1,4,15.2,8.6c6.1,4.6,9.7,8,9.7,8s-0.4-3.8-6.1-10.9
				c-5.7-7-8.3-8.5-11.1-14.9c-2.9-6.4-2.5-13-1.9-13.4s3.1-0.6,5.6-4c2.5-3.4,2.5-4,3-4.2c0.6-0.2,4.5-0.4,7-1c2.4-0.6,2.9-2,2.9-2
				V79c-1.2,0.4-2,1.5-2,2.8c0,1.7,1.3,3,3,3s3-1.3,3-3c0-1.3-0.8-2.4-1.9-2.8V60c0,0,1.4,1.7,4.7,1.9c3.3,0.3,6.5-1.3,7.1-1.3
				c0.6,0.1,0.5,0.8,0.5,0.8v33.4h1.3h1.3V61.5c0,0-0.1-0.8,0.5-0.8c0.6-0.1,3.8,1.6,7.1,1.3c3.3-0.3,4.7-1.9,4.7-1.9v19.1
				c-1.1,0.4-1.9,1.5-1.9,2.8c0,1.7,1.3,3,3,3s3-1.3,3-3c0-1.3-0.8-2.4-2-2.8v-19c0,0,0.5,1.5,2.9,2c2.4,0.6,6.4,0.8,7,1
				s0.6,0.8,3,4.2c2.5,3.4,5,3.6,5.6,4s1,7-1.9,13.4s-5.4,7.9-11.1,14.9s-6.1,10.9-6.1,10.9s3.5-3.4,9.7-8s14.4-8.6,15.2-8.6
				c0.8-0.1,9.7,2.6,9.7,2.6s1.5,1.3,2.3,6.5s0.1,10.9-2.1,12.5c-2.2,1.5-3.7,0.4-3.7,0.4s0.3-1.5-0.3-5.1c-0.5-3.6-2.2-6.5-2.2-6.5
				l2.2-3.1c0,0-5.9-0.5-15.6,5.6s-16.9,15.2-17.4,15.5c-0.6,0.2-2.6-1-4-3.5s-1.3-8.5-1-8.8s-2.6,1.5-3.1,5.8
				c-0.6,4.2,0.9,6.5,0.9,6.5l-2.2-0.1c0,0,5,4,9.7,12.3s6.5,17.3,6.5,17.3s0.8-0.6,2-3.8c1.3-3.3,1.4-6.5,2.2-7.3s3.3-0.3,9.5-3.9
				c2.9-1.6,4.7-3.2,6.4-4.9l8.9,1.1c0.3,1,1.2,1.7,2.2,1.7c1.3,0,2.3-1,2.3-2.3s-1-2.3-2.3-2.3c-0.8,0-1.5,0.4-1.9,1.1l-7.7-1
				c1.5-1.6,3-3.3,5.1-5.3c5.2-4.9,9.3-2.4,12,1.3c2.9,3.8,2.7,4.9,0.9,10.4c-1.9,5.5-5.8,10.9-5.8,10.9s-2.4-0.6-8.1,0
				c-5.6,0.6-11,3.8-11,3.8s0.6-2.4,1.9-3.7s4.7-3.5,4.7-3.5s-4.7-0.8-10.9,4.1c-6.1,4.9-6.8,8.8-7.2,8.1c-0.5-0.6-2.2-2-2.2-2
				s0.1,0.4,0.3,3.3c0.1,2.9-0.3,8.8-0.3,8.8s-1.9,2.6-5.3,4.7c-0.4-1.4-1-3.6-1.4-3.4c-0.3,0.1-0.8,3.1-1.1,4.7
				c-0.2,0.1-0.4,0.1-0.6,0.3c-1.8,0.6-3.8,1-5.6,1.3c-0.4-1.5-1.3-4.5-1.5-4.5c-0.3,0.1-0.9,3.3-1.3,4.7c-1.8,0.1-3.2,0.1-3.6,0.1
				s-1.7,0-3.6-0.1c-0.4-1.4-1-4.7-1.3-4.7c-0.3-0.1-1.1,2.9-1.5,4.5c-1.8-0.3-3.8-0.7-5.6-1.3c-0.2-0.1-0.4-0.1-0.6-0.3
				c-0.3-1.6-0.7-4.5-1.1-4.7c-0.3-0.1-1,2-1.4,3.4c-3.5-2.1-5.3-4.7-5.3-4.7s-0.5-6-0.3-8.8c0.1-2.9,0.3-3.3,0.3-3.3
				s-1.7,1.3-2.2,2c-0.5,0.6-1.1-3.3-7.2-8.1c-6.1-4.9-10.9-4.1-10.9-4.1s3.5,2.2,4.7,3.5c1.3,1.3,1.9,3.7,1.9,3.7s-5.4-3.2-11-3.8
				s-8.1,0-8.1,0s-4-5.4-5.8-10.9c-1.9-5.5-1.9-6.6,0.9-10.4c2.9-3.8,6.9-6.1,12-1.3c2.1,1.9,3.6,3.7,5.1,5.3l-7.7,1
				c-0.4-0.6-1.1-1.1-1.9-1.1c-1.3,0-2.3,1-2.3,2.3s1,2.3,2.3,2.3c1,0,2-0.8,2.2-1.7l8.9-1.1c1.7,1.7,3.6,3.3,6.4,4.9
				c6.3,3.6,8.8,3.1,9.5,3.9c0.8,0.8,1,4,2.2,7.3c1.3,3.3,2,3.8,2,3.8s1.7-8.8,6.5-17.3c4.7-8.4,9.7-12.3,9.7-12.3l-2.2,0.1
				c0,0,1.5-2.2,0.9-6.5c-0.6-4.2-3.3-6.1-3.1-5.8c0.3,0.3,0.3,6.3-1,8.8c-1.4,2.5-3.6,3.6-4,3.5c-0.6-0.2-7.7-9.4-17.4-15.5
				s-15.6-5.6-15.6-5.6l2.2,3.1c0,0-1.7,2.9-2.2,6.5s-0.3,5.1-0.3,5.1s-1.5,1-3.7-0.4c-2.2-1.5-2.9-7.2-2.1-12.5
				C226,97.8,227.5,96.5,227.5,96.5z M277,135c-0.6-0.1-3.2-0.5-4.6,1.9c-1.5,2.6-2,6.5-5.8,11.6c-3.8,5.2-5.2,6.4-5,7.7
				c0.1,1.3,2.6,5.5,5.6,7.8c3.1,2.3,6.6,1.7,6.6,1.7L273,164c0,0,1.6-3,2.6-3.9c0.8-0.7,1.3-0.8,1.5-0.8s0.7,0.1,1.5,0.8
				c1,1,2.6,3.9,2.6,3.9l-0.8,1.7c0,0,3.6,0.6,6.6-1.7c3.1-2.3,5.4-6.5,5.6-7.8c0.1-1.3-1.3-2.6-5-7.7s-4.2-9.1-5.8-11.6
				c-1.4-2.4-4-1.9-4.6-1.9H277z"/>
			<path class="st8" d="M220,141.4c-0.8-1.5-1.5-3.2-2.2-4.9c-1.8-5.4-1.9-6.5,0.8-10.2c0.9-0.3,2.1-0.5,3.1-0.2
				c0.7,0.1,1.9,1.2,3.3,2.6c-1.5,0.5-2.6,1.9-2.6,3.6c0,2.1,1.7,3.8,3.8,3.8c1.5,0,2.7-0.8,3.3-2c1.2,1.5,2.2,2.9,2.9,4
				c2.2,3.3,2.9,4.2,2.1,4.2c-0.8,0.1-5.6,1.3-10.7,0.4C222.2,142.5,220.9,142,220,141.4L220,141.4z"/>
			<path class="st11" d="M242.3,160.1c0,0,0.8,4.7,0.1,13.4c-0.6,8.7-1.7,9.7-0.8,11.2c0.8,1.5,6.5,6.3,9.5,10.7
				c2.9,4.5,3.2,6.8,4.3,7.2c1.2,0.4,8.9,2.6,12.8,4.6c3.6,1.8,8.1,2.2,8.8,2.3c0.8-0.1,5.4-0.5,8.8-2.3c3.8-1.9,11.6-4.2,12.8-4.6
				c1.2-0.4,1.5-2.7,4.3-7.2c2.9-4.5,8.6-9.1,9.5-10.7c0.8-1.5-0.1-2.6-0.8-11.2c-0.6-8.7,0.1-13.4,0.1-13.4l0.1-1
				c0,0-2.4-0.9-2.9,1.9c-0.5,2.8,0.3,4.9-1.1,8.6c-1.4,3.6-5.6,4.9-5.8,6.5s0.6,4.9-0.1,5.9c-0.6,1,0,3.8-0.3,4.5s-1.6,1.5-1.7,2.1
				s0.3,1-0.4,4.3c-0.8,3.3-3.1,4.4-3.3,4.5s0.4-0.5,0.7-1.9c0.3-1.3,0.3-3.7,0.2-4.6c-0.1-0.9-1.5-2.9-2.2-2.9
				c-0.3,0-0.9,0.3-2,0.7c-0.2,1.7-0.7,5-0.9,5c-0.1,0-1.2-2.7-1.8-4.2c-0.8,0.2-1.8,0.4-2.9,0.6c-1,0.2-2.2,0.3-3.2,0.5
				c-0.1,1.4-0.5,4.3-0.7,4.3s-1.2-2.5-1.8-4c-2.3,0.3-4.2,0.4-4.6,0.4c-0.5,0-2.3-0.1-4.6-0.4c-0.6,1.5-1.5,4-1.8,4
				s-0.6-2.9-0.7-4.3c-1-0.1-2.2-0.3-3.2-0.5c-1.1-0.2-2.1-0.4-2.9-0.6c-0.6,1.5-1.6,4.2-1.8,4.2c-0.1,0-0.6-3.3-0.9-5
				c-1.1-0.4-1.7-0.7-2-0.7c-0.6,0-2,1.9-2.2,2.9s-0.1,3.3,0.2,4.6s1,1.9,0.7,1.9c-0.3-0.1-2.6-1.2-3.3-4.5
				c-0.8-3.3-0.3-3.8-0.4-4.3s-1.5-1.4-1.7-2.1c-0.3-0.7,0.3-3.5-0.3-4.5s0.1-4.4-0.1-5.9c-0.1-1.5-4.4-2.9-5.8-6.5
				c-1.4-3.6-0.6-5.7-1.1-8.6c-0.5-2.8-2.9-1.9-2.9-1.9L242.3,160.1L242.3,160.1z"/>
			<path class="st13" d="M256.9,190.7c-0.1,0.6-0.1,1.9,0,3.1c0,0,2.9,3.2,3.8,3.8c1,0.6,4,1.8,4,1.8l-2.2,0.7c0,0,4.5,2.2,8.1,3.1
				c3.1,0.8,5.8,1,6.4,1s3.3-0.1,6.4-1c3.6-1,8.1-3.1,8.1-3.1l-2.2-0.7c0,0,3-1.3,4-1.8s3.8-3.8,3.8-3.8c0.1-1.2,0.1-2.4,0-3.1
				c-0.1-0.9-1.5-2.9-2.2-2.9c-0.3,0-0.9,0.3-2,0.7c-0.2,1.7-0.7,5-0.9,5c-0.1,0-1.2-2.7-1.8-4.2c-0.8,0.2-1.8,0.4-2.9,0.6
				c-1,0.2-2.2,0.3-3.2,0.5c-0.1,1.4-0.5,4.3-0.7,4.3s-1.2-2.5-1.8-4c-2.3,0.3-4.2,0.4-4.6,0.4c-0.5,0-2.3-0.1-4.6-0.4
				c-0.6,1.5-1.5,4-1.8,4s-0.6-2.9-0.7-4.3c-1-0.1-2.2-0.3-3.2-0.5c-1.1-0.2-2.1-0.4-2.9-0.6c-0.6,1.5-1.6,4.2-1.8,4.2
				c-0.1,0-0.6-3.3-0.9-5c-1.1-0.4-1.7-0.7-2-0.7C258.4,187.9,257.1,189.8,256.9,190.7z"/>
			<path class="st19" d="M262.3,80.8c0.7,0,1.3,0.6,1.3,1.3c0,0.7-0.6,1.3-1.3,1.3c-0.7,0-1.3-0.6-1.3-1.3S261.6,80.8,262.3,80.8z"
				/>
			<path class="st8" d="M258.5,111.3c-6.3-7.7-21-14.6-21.8-14.8c-0.8-0.1-7.3,1.9-7.3,1.9s-2,5.8-0.8,11.2c0.6,2.5,1.5,3.7,2.4,4.3
				c0.1-0.8,0.1-1.7,0.3-3c0.5-3.6,2.2-6.5,2.2-6.5l-2.2-3.1c0,0,5.9-0.5,15.6,5.6c5.5,3.5,10.2,7.9,13.4,11.2
				C262.8,118.2,263.2,117.2,258.5,111.3L258.5,111.3z"/>
			<path class="st13" d="M277,95.1h-1.3V68.8c-3.5-0.2-8.2-0.3-12.3-0.1v10.6c1.1,0.4,1.9,1.5,1.9,2.8c0,1.7-1.3,3-3,3s-3-1.3-3-3
				c0-1.3,0.8-2.4,2-2.8V68.9c-2.3,0.2-4.3,0.6-5.6,1.1c-5.6,2.5-8.1,14,4,28.3c6.7,7.9,13,10.3,17.3,10.9V95.1L277,95.1z"/>
			<path class="st8" d="M268.5,118.9c1.4-2.5,1.3-8.5,1-8.8s2.6,1.5,3.1,5.8c0.1,0.6,0.1,1,0.1,1.5c0.6-0.6,1.4-1.2,2.5-1.7
				c0.6-0.2,1.2-0.3,1.8-0.4c0.7,0.1,1.3,0.2,1.8,0.4c1.1,0.5,1.9,1,2.5,1.7c0-0.5,0.1-1,0.1-1.5c0.6-4.2,3.3-6.1,3.1-5.8
				c-0.3,0.3-0.3,6.3,1,8.8c0.6,1.1,1.4,1.9,2.1,2.6c0,0-0.6-1.9,0.7-6.3c1.3-4.2,5-8.5,5-8.5c0.9-1.7,2.4-4.1,4.7-6.9
				c5.7-7,8.3-8.5,11.1-14.9c2.9-6.4,2.5-13,1.9-13.4s-3.1-0.6-5.6-4s-2.5-4-3-4.2c-0.6-0.2-4.5-0.4-7-1c-2.4-0.6-2.9-2-2.9-2v8.6
				c2.3,0.2,4.3,0.6,5.6,1.1c5.6,2.5,8.1,14-4,28.3c-6.7,7.9-13,10.3-17.3,10.9c-4.3-0.6-10.6-3-17.3-10.9
				c-12.1-14.3-9.7-25.8-4-28.3c1.3-0.6,3.3-0.9,5.6-1.1v-8.6c0,0-0.5,1.5-2.9,2c-2.4,0.6-6.4,0.8-7,1s-0.6,0.8-3,4.2
				c-2.5,3.4-5,3.6-5.6,4s-1,7,1.9,13.4s5.4,7.9,11.1,14.9c2.3,2.9,3.8,5.2,4.7,6.9c0,0,3.7,4.2,5,8.5c1.3,4.2,0.7,6.3,0.7,6.3
				c0.7-0.6,1.5-1.5,2.1-2.6C268.1,118.9,268.5,118.9,268.5,118.9z"/>
			<path class="st19" d="M226.3,131.5c0.5,0,0.9,0.4,0.9,0.9s-0.4,0.9-0.9,0.9s-0.9-0.4-0.9-0.9S225.8,131.5,226.3,131.5z"/>
			<path class="st20" d="M262.1,154.6c0.7-1.1,2.2-2.9,4.5-6.1c3.8-5.2,4.2-9.1,5.8-11.6c1.4-2.4,4-1.9,4.6-1.9
				c0.6-0.1,3.2-0.5,4.6,1.9c1.5,2.6,2,6.5,5.8,11.6c2.4,3.2,3.8,4.9,4.5,6.1c0,0-3.3-7.2-5.5-12.7s-2.9-7.9-5.5-9.3
				c-2.2-1.1-3.6-0.9-4-0.8c-0.4-0.1-1.8-0.3-4,0.8c-2.5,1.3-3.3,3.8-5.5,9.3C265.5,147.3,262.1,154.6,262.1,154.6z"/>
			<path class="st13" d="M267.6,153.4c0,0-1.9,1.9-1.8,2.3c0.1,0.3,2.6,3.8,3.3,4.9c0.8,1.1,1.6,1.3,1.6,1.3s2.6-3.5,3.6-4.2
				c0.8-0.6,2.3-1,2.7-1.1v-1.5c-0.5,0.1-2.6,0.8-3.5,1.3c-1,0.6-3.1,3.4-3.1,3.4s-3-4.2-3.1-4.5
				C267.3,155.1,267.6,153.3,267.6,153.4L267.6,153.4z"/>
			<path class="st20" d="M235.8,115.7c0.9,8.6,5,16.6,14.1,19.2c4.9,1.4,7.5-1.1,8.4-2.5s1-2.4,1-2.4s-3,2.7-4.4,2.9
				C244.7,134.5,239.4,123.1,235.8,115.7L235.8,115.7z"/>
			<path class="st8" d="M258.1,176.4c0,0-0.3-2.9,0.4-3.9c0.7-1,3.1-0.8,3.2,2.1s0.1,3.5,0.1,3.5s-1.3,0.3-2.3-0.1
				C258.5,177.5,258.1,176.4,258.1,176.4L258.1,176.4z"/>
			<path class="st8" d="M263.7,178.9c0,0-0.3-2.9,0.4-3.9c0.7-1,3.1-0.8,3.2,2.1c0.1,2.9,0.1,3.5,0.1,3.5s-1.3,0.3-2.3-0.1
				C264.1,180.1,263.7,178.9,263.7,178.9L263.7,178.9z"/>
			<path class="st8" d="M269,180.1c0,0-0.3-2.9,0.3-3.9s3.1-0.8,3.2,2.1s0.1,3.5,0.1,3.5s-1.3,0.3-2.3-0.1
				C269.4,181.2,269,180.1,269,180.1L269,180.1z"/>
			<path class="st13" d="M257.9,182.8c0,0-0.3,2,0.3,2.9s2.5,1.2,2.6-0.9c0.1-2.1,0.1-2.5,0.1-2.5s-1.1-0.5-1.9-0.3
				C258.2,182.1,257.8,182.8,257.9,182.8L257.9,182.8z"/>
			<path class="st13" d="M263.5,184c0,0-0.3,2.4,0.3,3.5c0.7,1,2.9,1.4,3.1-1s0.1-3,0.1-3s-1.3-0.6-2.2-0.4S263.5,184,263.5,184
				L263.5,184z"/>
			<path class="st13" d="M269,184.5c0,0-0.3,2.6,0.4,3.7c0.7,1.1,3.1,1.5,3.3-1.1c0.1-2.6,0.1-3.2,0.1-3.2s-1.4-0.6-2.4-0.4
				C269.4,183.6,269,184.5,269,184.5L269,184.5z"/>
			<path class="st11" d="M249.7,26.5c-1.4,0.9-1.7,2.9-1.7,2.9c0.7,1.1,1.8,1.9,3.1,1.8c1.7-0.1,4.2-1.9,12.3-3.2
				c7.4-1.1,12.8-0.8,13.6-0.7v-5.1C261.2,21.8,251,25.8,249.7,26.5L249.7,26.5z"/>
			<path class="st8" d="M203,50.1l-0.2-3.8c-0.8,0.9-1.4,1.8-2,2.7c-0.8,1.2-1.7,2.4-2.9,3.8l0.2,3.3c2.2-1.9,3.6-3.8,4.8-5.6
				C203,50.3,203,50.2,203,50.1L203,50.1z"/>
			<path class="st9" d="M208.2,41.9c0.6,0.3,1,0.9,1.3,1.8c0,0.1,0.1,0.1,0.1,0.3c2.6-1.6,3.7-1.5,3.7-1.5c0.7,0.1,1.3-0.4,1.3-1.1
				c0.1-0.7-0.4-1.3-1.1-1.3C213.5,40,211.7,39.9,208.2,41.9L208.2,41.9z"/>
			<path class="st9" d="M218.3,34.5c2.1,0.3,2.9,0.7,2.9,0.8c0.7,0.3,1.5,0,1.7-0.7c0.3-0.7,0-1.5-0.7-1.7c0,0-1.1-0.5-3.6-0.9
				C219,32.7,219,33.6,218.3,34.5L218.3,34.5z"/>
			<path class="st8" d="M212.8,33.8l1.7-2.5c-0.8-0.1-1.7-0.1-2.6-0.1c-1.4-0.1-2.6,0-3.8,0.1l-1.8,2.8c1.4-0.2,3.2-0.3,5.4-0.2
				C212.1,33.8,212.4,33.8,212.8,33.8L212.8,33.8z"/>
			<path class="st21" d="M193.1,75.8c-1.2,1.7-2.6,3.4-4.3,4.9c-0.2,0.2-0.4,0.3-0.6,0.6c0,0.3,0,0.6-0.1,0.9
				c-0.1,1.3-0.3,2.4-0.5,3.3c1-0.8,2.2-1.6,3.2-2.5c0.8-0.7,1.5-1.4,2.2-2.2C193.2,78.8,193.1,77.1,193.1,75.8L193.1,75.8z"/>
			<path class="st22" d="M190.8,144.2c0.3-1.3,1.7-2.2,3-1.8c1.3,0.3,2.2,1.7,1.8,3c0,0.1-3.2,12.7-8.1,22.2
				c-4.9,9.6-9.6,13.9-9.6,13.9c-1,0.9-2.6,0.9-3.5-0.1s-0.9-2.6,0.1-3.5c0,0,4.1-3.8,8.6-12.5C187.6,156.5,190.8,144.3,190.8,144.2
				L190.8,144.2z"/>
			<path class="st22" d="M199.8,148.2c0.5-1.3,1.9-1.9,3.2-1.4s1.9,1.9,1.4,3.2c0,0-4,9.9-5.2,17.8c-0.8,5.4-1,7.8-1.1,10.2
				c-0.1,1.3-0.1,2.5-0.3,4.2c-0.6,5.4-2,8.4-2,8.4c-0.6,1.2-2.1,1.7-3.3,1c-1.2-0.6-1.7-2.1-1-3.3c0,0,1-2,1.5-6.5
				c0.1-1.5,0.2-2.8,0.3-4c0.1-2.6,0.3-5.2,1.2-10.7C195.6,158.6,199.8,148.2,199.8,148.2L199.8,148.2z"/>
			<path class="st22" d="M208.4,151.5c0-1.4,1.1-2.5,2.4-2.5c1.4,0,2.5,1.1,2.5,2.4c0,0.1,0.2,17.8-1.3,28.5
				c-1.6,10.9-4.5,17.4-4.5,17.4c-0.6,1.3-2,1.8-3.3,1.3c-1.3-0.6-1.8-2-1.3-3.3c0,0,2.6-5.8,4.1-16.1
				C208.7,168.8,208.5,151.5,208.4,151.5L208.4,151.5z"/>
			<path class="st22" d="M218.1,159c-0.3-1.3,0.6-2.6,1.9-2.9c1.3-0.3,2.6,0.6,2.9,1.9c0.2,1,0.7,8.1,0.6,15.9
				c-0.1,4.7-0.3,9.7-0.9,13.9c-1.5,11.1-3.3,16.6-3.3,16.6c-0.4,1.3-1.7,2.1-3.1,1.7c-1.3-0.4-2.1-1.7-1.7-3.1
				c0,0,1.6-5.2,3.1-15.8c0.6-4,0.8-8.8,0.8-13.2c0.1-7.4-0.3-13.9-0.5-14.8h0.2V159z"/>
			<path class="st22" d="M228,163.6c0.3-1.3,1.6-2.2,2.9-1.9c1.3,0.3,2.2,1.6,1.9,2.9c0,0.1-3.1,13.5,0.7,25.1
				c3.7,11.4,11.7,16.6,11.7,16.6c1.1,0.8,1.5,2.3,0.7,3.4c-0.8,1.1-2.3,1.5-3.4,0.7c0,0-9.5-6.2-13.7-19.3
				C224.6,178.2,227.9,163.5,228,163.6L228,163.6z"/>
			<path class="st16" d="M167,182.8L167,182.8c0.7-1.1,1.8-1.8,3.1-1.9c-0.6,1.4-0.1,3,1.2,3.8l3.1,1.8c1.3,0.8,3,0.4,3.9-0.8
				c0.5,1.1,0.5,2.5-0.2,3.6l0,0c-1.1,1.9-3.6,2.6-5.4,1.5l-4.2-2.4C166.5,187.2,165.8,184.7,167,182.8L167,182.8z"/>
			<path class="st18" d="M172.6,190.7c1.9,1.1,4.4,0.5,5.4-1.5c0.7-1.1,0.7-2.5,0.2-3.6c-0.9,1.2-2.6,1.6-3.9,0.8l-1.8-1
				c-0.9,0.9-1.7,2-2.4,3.2c-0.1,0.1-0.2,0.3-0.3,0.5L172.6,190.7z"/>
			<path class="st16" d="M186.9,194.5L186.9,194.5c0.3-1.1,1.1-1.9,2.1-2.4c-0.2,1.3,0.6,2.6,1.9,2.9l3.1,0.8
				c1.3,0.3,2.6-0.4,3.1-1.6c0.7,0.8,1,1.9,0.7,3.1l0,0c-0.5,1.9-2.4,3-4.2,2.5l-4.1-1C187.5,198.3,186.4,196.4,186.9,194.5
				L186.9,194.5z"/>
			<path class="st18" d="M193.5,199.8c1.9,0.5,3.8-0.6,4.2-2.5c0.3-1.1,0-2.2-0.7-3.1c-0.5,1.3-1.8,1.9-3.1,1.6l-1.8-0.5
				c-0.5,1-1,2.1-1.3,3.3c-0.1,0.1-0.1,0.3-0.1,0.4L193.5,199.8L193.5,199.8z"/>
			<path class="st16" d="M198.3,201.6L198.3,201.6c0.3-1.1,1.1-1.9,2.1-2.4c-0.2,1.3,0.6,2.6,1.9,2.9l3.1,0.8
				c1.3,0.3,2.6-0.4,3.1-1.6c0.7,0.8,1,1.9,0.7,3.1l0,0c-0.5,1.9-2.4,3-4.2,2.5l-4.1-1C198.9,205.3,197.8,203.4,198.3,201.6
				L198.3,201.6z"/>
			<path class="st18" d="M204.9,206.9c1.9,0.5,3.8-0.6,4.2-2.5c0.3-1.1,0-2.2-0.7-3.1c-0.5,1.3-1.8,1.9-3.1,1.6l-1.8-0.5
				c-0.5,1-1,2.1-1.3,3.3c-0.1,0.1-0.1,0.3-0.1,0.4L204.9,206.9L204.9,206.9z"/>
			<path class="st16" d="M211.3,209.5L211.3,209.5c0.1-1.1,0.8-2.1,1.8-2.6c-0.1,1.3,0.9,2.5,2.2,2.6l3.1,0.4
				c1.3,0.2,2.6-0.7,2.9-1.9c0.8,0.8,1.2,1.8,1,3l0,0c-0.3,1.9-2,3.2-3.9,3l-4.2-0.6C212.4,213.2,211.1,211.5,211.3,209.5
				L211.3,209.5z"/>
			<path class="st18" d="M218.5,214c1.9,0.3,3.7-1,3.9-3c0.1-1.1-0.3-2.2-1-3c-0.3,1.3-1.5,2.2-2.9,1.9l-1.8-0.3
				c-0.4,1-0.7,2.2-0.9,3.4c0,0.1-0.1,0.3-0.1,0.5L218.5,214L218.5,214z"/>
			<path class="st21" d="M165.8,201.6c0,6.2,4.9,12.4,5.7,12.4c0.8,0.1,0.3-1.9-1.1-4.2c-1.4-2.4-2.7-5.6-2.2-9.5
				c0.6-3.9,2.2-7.4,2.2-7.4l-1.5-4.4C166.5,193,165.8,196.1,165.8,201.6z"/>
			<path class="st21" d="M188.7,201.9c0,0,0.1,13.8,1.9,21.8c1.9,8,5.4,9.5,7,10.2c1.7,0.6-1-5.7-2.3-11.7s-0.9-14.2-1.3-15.8
				c-0.3-1.6-2.8-5.3-3.9-5.5C189.2,200.7,188.8,202,188.7,201.9L188.7,201.9z"/>
			<path class="st21" d="M200.7,209.6c0,0,0.6,12.6,3.3,19.6s3.6,8.2,6,9s-2.5-14.8-2.9-19.9c-0.3-5.2-2.6-8.2-4.2-8.9
				C201.1,208.6,200.6,209.6,200.7,209.6L200.7,209.6z"/>
			<path class="st21" d="M215,217c0,0-1-0.1-1.4,2s1.5,13.5,7,19.6s9.7,7.7,11.9,7c2.2-0.6-2.4-4-6.8-9.7
				c-4.4-5.7-6.3-13.9-7.1-15.7C217.9,218.3,214.9,217,215,217L215,217z"/>
			<path class="st3" d="M233,219.6c0,0,2.9,8.1,7,10.9c4.2,2.7,11.1,2.3,12.7,1.3c1.5-1-14.9-14.8-15.7-15c-0.9-0.2-2.6,0.3-3.4,1
				C232.8,218.6,233,219.7,233,219.6L233,219.6z"/>
			<path class="st11" d="M178.9,180.5c1.6-1.7,5.1-5.9,8.6-12.9c4.2-8.2,7.2-18.8,7.9-21.5c-0.7-1.5-2.4-1.3-2.4-1.3
				s-4,15.5-8.5,23.4s-8.6,11.9-8.6,11.9s0,0,1.1,0.3C177.5,180.6,178.2,180.6,178.9,180.5L178.9,180.5z"/>
			<path class="st11" d="M201.4,149.3c-0.1,0.3-3.8,11.5-4.8,17.1s-1.3,15.7-1.7,18.5c-0.4,2.6-1.1,3.9-1.1,3.9s0.6,1.4,2.6,0.6
				c0.5-1.3,1.1-3.7,1.5-7c0.1-1.7,0.3-3,0.3-4.2c0.1-2.4,0.3-4.8,1.1-10.2c1-6.3,3.7-13.9,4.7-16.7c-0.2-0.4-0.5-0.9-0.9-1.3
				C202.1,148.9,201.6,148.9,201.4,149.3L201.4,149.3z"/>
			<path class="st11" d="M210.8,152.3c0,0-0.3,23.2-1.5,30.6c-1.2,7.3-4,13.2-4,13.2s-0.1,0.6,1.5,0.1c0.6-0.2,1.1-0.5,1.5-0.8
				c1-2.7,2.6-8,3.7-15.3c1.4-9.6,1.4-24.8,1.3-27.9C212.3,151.2,210.8,152.3,210.8,152.3L210.8,152.3z"/>
			<path class="st11" d="M220.2,158.4c0,0,1.5,14.3,0,26.9c-1.5,12.7-3.1,17.6-3.1,17.6s0.9,1.1,2.4,0.2c0.6-2.1,1.8-7.2,2.9-15.5
				c0.6-4.2,0.8-9.2,0.9-13.9c0.1-5.9-0.2-11.3-0.4-14.1c-0.4-0.4-0.8-0.8-1.2-1C220.9,158.1,220.1,158.3,220.2,158.4L220.2,158.4z"
				/>
			<path class="st11" d="M228,163.6c0,0.1-3.3,14.8,0.8,27.6c4.2,13.1,13.6,19.2,13.7,19.3c1.1,0.8,2.6,0.4,3.4-0.7
				c0.8-1.1,0.4-2.6-0.7-3.4c0,0-8-5.2-11.7-16.6c-3.8-11.6-0.7-25.1-0.7-25.1c0.3-1.3-0.6-2.6-1.9-2.9
				C229.7,161.5,228.4,162.3,228,163.6L228,163.6z"/>
			<path class="st11" d="M225.9,235.9c-3.5-4.5-5.4-10.7-6.4-13.9c-3.7-2.2-3.4,1.4,1.9,11.7c5.2,10.3,11.8,11.7,11.8,11.7
				C234.1,244.3,229.9,241,225.9,235.9L225.9,235.9z"/>
			<path class="st11" d="M210.3,238.1c1.7-0.6-2.8-15-3.1-19.9c-0.1-1.3-0.3-2.5-0.6-3.6c-3-3-3.6-0.9-2.2,6.8
				C205.7,229.1,210.3,238.1,210.3,238.1L210.3,238.1z"/>
			<path class="st11" d="M195.4,222.2c-1.3-6-0.9-14.2-1.3-15.8c-1.9-2.8-3.8-1.9-2.4,10c1.4,11.9,6,17.5,6,17.5
				C199.4,234.5,196.8,228.2,195.4,222.2L195.4,222.2z"/>
			<path class="st8" d="M263.4,60.2v8.6c4.2-0.2,8.9-0.1,12.3,0.1v-7.2c0,0,0.1-0.8-0.5-0.8c-0.6-0.1-3.8,1.6-7.1,1.3
				C264.8,61.8,263.4,60.2,263.4,60.2z"/>
			<path class="st9" d="M290.9,36.1c0,0,1.4,6.4,0.6,8.5c-0.8,2.2-2.2,2.8-2.2,3.8c0.1,1.1,0.8,3.4-2.3,4.5c-3.1,1.1-6.8-1-7.4-3.1
				c-0.7-2.2,0.8-3.1,0.8-4.3c-0.1-1.3-1.3-1.7-1.3-3.8c0.1-2.2,2.6-8.1,5.2-8.6c2.5-0.6,6,0.5,6.3,1.6
				C290.7,35.8,290.9,36.1,290.9,36.1L290.9,36.1z M325.4,56c0,0-0.6,3.6-2.4,5.8c-1.7,2.2-2.1,0.6-3.1,2.6c-1,2-4.7,2.6-7.2-1.2
				c-2.4-3.8-1.3-5.2-0.1-5.7c1.2-0.4,0.3-2.1,1.9-4s4.2-3.5,5.3-3.7c1.2-0.3,3.2,1,4.5,2.8C325.7,54.5,325.4,56,325.4,56z
				 M309.4,41.9c0,0,0.1,6.6-1.1,8.5c-1.3,1.9-2.6,2.2-2.9,3.3c-0.1,1.1,0.1,3.6-3.1,4s-6.4-2.5-6.6-4.8c-0.3-2.3,1.4-2.9,1.6-4
				c0.2-1.3-1-1.9-0.6-4s4.1-7.3,6.7-7.3s5.8,1.8,5.8,3C309.3,41.6,309.4,41.9,309.4,41.9L309.4,41.9z"/>
			<path class="st11" d="M287.8,37c0.3,1.5,1,5.4,0.7,6.5c-0.8,1.9-2.5,2.5-2.4,5.2c0,0.3,0.1,0.9,0.1,1.3c-0.1,0.1-0.3,0.1-0.3,0.1
				c-0.7,0.3-1.5,0.1-2.1-0.1c-0.3-0.1-1.1-0.6-1.3-1c0-0.1,0-0.1,0-0.1c0-0.1,0.1-0.3,0.2-0.4c0.3-0.6,0.6-1.2,0.7-1.9
				c0.1-0.3,0.1-0.6,0.1-0.9c0-0.6-0.1-1.2-0.4-1.7c-0.3-0.6-0.6-1-0.8-1.5c-0.1-0.1-0.1-0.2-0.1-0.3c0.1-1.2,1.8-4.9,2.9-5.6
				c0.7-0.1,1.9,0,2.6,0.3c0.1,0.2,0.1,0.3,0.1,0.6L287.8,37z M320.2,60.2c-1.5,0.6-2.3,1.2-3.1,2.7c-0.6,0.2-1.5-1-1.7-1.3
				s-0.6-1-0.8-1.5c0.3-0.2,0.7-0.6,0.9-0.9c0.7-0.9,0.8-1.7,1-2.8c0.1-0.3,0.1-0.5,0.3-0.8c0.6-0.8,2.2-2.1,3.3-2.6
				c0.6,0.3,1.4,1,1.7,1.5c0.1,0.1,0.3,0.5,0.3,0.8v0.1c-0.2,1.3-0.9,3.3-1.7,4.4C320.3,59.8,320.2,60,320.2,60.2L320.2,60.2z
				 M302.2,54.5c-0.1,0-0.2,0.1-0.3,0.1c-0.7,0.1-1.5-0.3-2-0.7c-0.3-0.3-1-0.9-1.1-1.3c0-0.1,0-0.1,0-0.1c0.1-0.1,0.2-0.3,0.3-0.3
				c0.4-0.6,0.8-1,1-1.7c0.1-0.3,0.2-0.7,0.3-1c0.1-0.6,0.1-1.2,0-1.7c-0.1-0.7-0.3-1.1-0.6-1.7c-0.1-0.1-0.1-0.3,0-0.4
				c0.3-1.1,2.6-4.3,3.8-4.9c0.7,0.1,1.9,0.4,2.6,0.9c0,0.2,0.1,0.5,0.1,0.7c0,1.5-0.1,5.6-0.6,6.5c-0.8,1.3-2.2,1.7-2.9,3.3
				c-0.2,0.3-0.3,0.8-0.3,1.2C302.2,53.5,302.2,54.2,302.2,54.5z"/>
			<path class="st15" d="M306.1,23.1c2.2,2.9,0.2,8.4-3.1,8.3c-1.7-0.1-4.2-1.9-12.3-3.2c-7.4-1.1-12.8-0.8-13.6-0.7v-9.3
				C285.7,18.2,298.8,18.5,306.1,23.1L306.1,23.1z"/>
			<path class="st11" d="M313.1,28.2c0,0,0.2,1-0.7,2.6c-0.9,1.7-2.1,2.4-2.1,2.4s7.4,5.2,10.5,8.3s4,4.3,4,4.3s1.7,0.1,3.1-1.3
				c1.4-1.5,0.8-3.1,0.8-3.1s-3-4.1-7.9-7.9S313.2,28.1,313.1,28.2L313.1,28.2z"/>
			<path class="st9" d="M332.5,48.2c3.6,3.1,10.2,19.2,9.7,23.7c0,0-1.3,1.6-2.2-1s-1.3-6.1-4-11.8c-2.8-5.7-5.1-8.8-5.4-9.7
				c-0.4-0.9,0.6-1.9,1.1-1.9S332.6,48.1,332.5,48.2L332.5,48.2z"/>
			<path class="st9" d="M332,66.5c0,0,0.8,1.7,1.3,5.2c0.5,3.6-1,4.8-2.6,5.2c-1.6,0.3-3.8-4-4.5-5.5c-0.8-1.5,1.5-4.9,3.1-5.6
				C331.1,65,332,66.4,332,66.5L332,66.5z"/>
			<path class="st16" d="M371.2,53.6L371.2,53.6c-1.4,0-2.6,0.7-3.4,1.7c1.6,0.1,2.9,1.5,2.9,3.2v3.9c0,1.7-1.3,3-2.9,3.2
				c0.8,1,2,1.7,3.4,1.7l0,0c2.4,0,4.2-1.9,4.2-4.2v-5.2C375.5,55.6,373.5,53.7,371.2,53.6L371.2,53.6z"/>
			<path class="st16" d="M359,27.9L359,27.9c-1.3,0-2.4,0.6-3.1,1.5c1.4,0.1,2.6,1.4,2.6,2.9v3.5c0,1.5-1.1,2.6-2.6,2.9
				c0.7,1,1.8,1.5,3.1,1.5l0,0c2.1,0,3.8-1.7,3.8-3.8v-4.6C362.8,29.7,361.1,27.9,359,27.9z"/>
			<path class="st16" d="M383.5,86L383.5,86c-1.2-0.4-2.4-0.1-3.4,0.5c1.3,0.6,1.9,2.1,1.5,3.5l-1.1,3.3c-0.5,1.4-1.9,2.2-3.3,1.9
				c0.3,1.1,1.2,2.1,2.4,2.4l0,0c1.9,0.7,4.2-0.4,4.8-2.4l1.5-4.4C386.6,88.8,385.4,86.6,383.5,86L383.5,86z"/>
			<path class="st9" d="M367.1,60.6c0.7,0.1,1.3-0.5,1.3-1.2c0.1-0.7-0.5-1.3-1.2-1.3c0,0-5.2-0.3-9.5-4c-2-1.8-3.3-3.6-4.5-5.2
				c-1.4-2-2.7-3.9-5.3-5.7c-4.9-3.6-7.4-3.3-7.4-3.3c-0.7,0.1-1.2,0.6-1.1,1.3s0.6,1.2,1.3,1.1c0,0,1.6-0.1,5.7,2.9
				c2.2,1.6,3.4,3.3,4.7,5.2c1.3,1.7,2.6,3.6,4.8,5.6C361.1,60.2,367.1,60.6,367.1,60.6L367.1,60.6z"/>
			<path class="st23" d="M331.8,32.7c-0.7,0.3-1,1-0.7,1.7s1,1,1.7,0.7c0,0,2.5-1.1,9.5-1.3c6.9-0.3,9.7,1.3,9.7,1.3
				c0.6,0.3,1.5,0.1,1.8-0.6c0.3-0.6,0.1-1.5-0.6-1.8c0,0-3.5-1.9-11.1-1.6C334.6,31.5,331.7,32.8,331.8,32.7L331.8,32.7z"/>
			<path class="st18" d="M379.6,97.5c-1.2-0.4-2.1-1.3-2.4-2.4c1.4,0.3,2.9-0.5,3.3-1.9l0.8-2.2c1.5,0.8,2.8,1.9,3.5,3.1l-0.3,1
				C383.7,97.1,381.5,98.2,379.6,97.5L379.6,97.5z"/>
			<path class="st18" d="M375.5,63.1c0,2.4-1.9,4.2-4.2,4.2c-1.4,0-2.6-0.7-3.4-1.7c1.6-0.1,2.9-1.5,2.9-3.2v-2.3
				c1.3-0.3,2.8-0.5,4.3-0.5c0.2,0,0.3,0,0.6,0L375.5,63.1L375.5,63.1z"/>
			<path class="st18" d="M362.8,36.3c0,2.1-1.7,3.8-3.8,3.8c-1.3,0-2.4-0.6-3.1-1.5c1.4-0.1,2.6-1.4,2.6-2.9v-2
				c0.4-0.1,0.8-0.1,1.2-0.1c1.1,0,2.2,0.1,3.1,0.5L362.8,36.3L362.8,36.3z"/>
			<path class="st23" d="M375.8,90.4c0.8,0.3,1.6-0.1,1.9-0.9s0-1.6-0.8-1.9c0,0-6.3-2.4-11.7-7.1c-5.4-4.6-8.5-12.3-8.5-12.4
				c-0.3-0.8-1.2-1-1.9-0.7c-0.8,0.3-1.1,1.3-0.8,1.9c0,0,3.4,8.4,9.3,13.4C369.1,87.8,375.8,90.4,375.8,90.4L375.8,90.4z"/>
			<path class="st8" d="M350,85.2c0,0-0.2,6.3-0.9,7.1c-0.7,0.9-1.3,1-1.3,1s-1.6-10.2-2.2-11.8c-0.6-1.6-3.8-1.4-3.8-1.4l0.7,8.7
				c0,0,1-0.3,1.7-0.2s1.1,0.3,1,0.4s-1.9,1.4-2.3,2.3s0.1,3.9,0.1,3.9s1.3-0.3,2.2-0.3c0.8,0.1,1.3,0.3,1.1,0.4
				c-0.1,0.1-2,1.3-2.6,2.4s-0.1,3.7-0.1,3.7s0.8,0.3,2,0.5s1.6,0.4,1.2,0.6s-3.1,1.4-3.1,1.6c-0.1,0.2,0.3,4.8,0.3,4.9
				s1.6,0.6,3.2,0.3c1.6-0.3,2.2-1.8,2.2-1.8s-1.2-9-0.9-8.8c0.2,0.1,2.4-0.7,4,13.4c1.7,14.2,0.2,22.8,0.2,22.8s2.2,0.6,3.1-3.1
				c0.8-3.7-0.5-17.5-0.7-20.8c-0.3-3.3-0.6-4.3-0.6-4.3s1.9,3.2,3.8,3.6c2,0.4,3.7-2.2,3.7-2.2s1.3,14.5,1.1,17.3
				c-0.1,2.9-3.2,5.2-3.2,5.2s2.9-0.4,4.9-3s1.1-22.5-1-29.8c-2-7.4-6.5-10.3-9.1-11.2S350,85.2,350,85.2L350,85.2z"/>
			<path class="st9" d="M347.8,93.4c0,0-1.6-10.2-2.2-11.8c-0.6-1.6-3.8-1.4-3.8-1.4l0.7,8.7c0,0,1-0.3,1.7-0.2s1.1,0.3,1,0.4
				s-1.9,1.4-2.3,2.3s0.1,3.9,0.1,3.9s1.3-0.3,2.2-0.3c0.8,0.1,1.3,0.3,1.1,0.4c-0.1,0.1-2,1.3-2.6,2.4s-0.1,3.7-0.1,3.7
				s0.8,0.3,2,0.5s1.6,0.4,1.2,0.6s-3.1,1.4-3.1,1.6c-0.1,0.2,0.3,4.8,0.3,4.9s1.6,0.6,3.2,0.3c1.6-0.3,2.2-1.8,2.2-1.8
				s-1.2-9-0.9-8.8L347.8,93.4L347.8,93.4z"/>
			<path class="st9" d="M349.7,113.6c0,0,0.3,6.8,0.1,7.7c-0.2,0.9-5.7,2.6-6.9,2.8c-1.2,0.2-0.9-2.1-0.6-2.4s1.7-0.8,2.6-1.8
				s0.9-2.4,0.9-2.4s-1.4,1-2.8,1.1c-1.3,0.1-1.3-2.2-1.2-3.7c0.1-1.5,2.4-2.3,4.2-2.4C347.8,112.4,349.6,113.6,349.7,113.6
				L349.7,113.6z"/>
			<path class="st9" d="M347.9,138c0,0-0.6,2.2-1.7,2.6c-1.2,0.3-4,0.9-4,0.6c0-0.2,1-2.9,1.7-3c0.6-0.2,4.5-1.1,4.5-1
				C348.3,137.2,347.9,138,347.9,138L347.9,138z"/>
			<path class="st11" d="M358.7,96.9c1.8,0.6,3.9,2.1,5.8,3.8c1.6,8.6,2.2,24.8,0.3,27.1c-2,2.6-4.9,3-4.9,3s3.1-2.4,3.2-5.2
				c0.1-2.8-1.1-17.3-1.1-17.3s-1.7,2.6-3.7,2.2s-3.8-3.6-3.8-3.6s0.3,1,0.6,4.3c0.3,3.3,1.6,17.1,0.7,20.8
				c-0.8,3.7-3.1,3.1-3.1,3.1s1.5-8.6-0.2-22.8c-0.3-3.1-0.8-5.6-1.1-7.4c0.1-0.5,0.1-1,0.2-1.7C352,98.5,353.8,95.3,358.7,96.9
				L358.7,96.9z"/>
			<path class="st9" d="M318.3,73.9c0,0,0.6,2.9,3.3,5c2.7,2.1,5.6,5.4,5.8,8.6s-1.6,4.3-1.6,4.3l-3.4-0.9c0,0,1.9-3.2,1.3-5.3
				c-0.6-2.1-3.6-4.1-5.2-7.1C317,75.7,318.3,73.9,318.3,73.9L318.3,73.9z"/>
			<path class="st8" d="M334.1,141.4c0.8-1.5,1.5-3.2,2.2-4.9c1.8-5.4,1.9-6.5-0.8-10.2c-0.9-0.3-2.1-0.5-3.1-0.2
				c-0.7,0.1-1.9,1.2-3.3,2.6c1.5,0.5,2.6,1.9,2.6,3.6c0,2.1-1.7,3.8-3.8,3.8c-1.5,0-2.7-0.8-3.3-2c-1.2,1.5-2.2,2.9-2.9,4
				c-2.2,3.3-2.9,4.2-2.1,4.2c0.8,0.1,5.6,1.3,10.7,0.4C331.9,142.5,333.2,142,334.1,141.4L334.1,141.4z"/>
			<path class="st19" d="M291.8,80.8c-0.7,0-1.3,0.6-1.3,1.3c0,0.7,0.6,1.3,1.3,1.3s1.3-0.6,1.3-1.3C293,81.4,292.5,80.8,291.8,80.8
				z"/>
			<path class="st8" d="M295.6,111.3c6.3-7.7,21-14.6,21.8-14.8c0.8-0.1,7.3,1.9,7.3,1.9s2,5.8,0.8,11.2c-0.6,2.5-1.5,3.7-2.4,4.3
				c-0.1-0.8-0.1-1.7-0.3-3c-0.5-3.6-2.2-6.5-2.2-6.5l2.2-3.1c0,0-5.9-0.5-15.6,5.6c-5.5,3.5-10.2,7.9-13.4,11.2
				C291.3,118.2,290.9,117.2,295.6,111.3L295.6,111.3z"/>
			<path class="st13" d="M277,95.1h1.3V68.8c3.5-0.2,8.2-0.3,12.3-0.1v10.6c-1.1,0.4-1.9,1.5-1.9,2.8c0,1.7,1.3,3,3,3s3-1.3,3-3
				c0-1.3-0.8-2.4-2-2.8V68.9c2.3,0.2,4.3,0.6,5.6,1.1c5.6,2.5,8.1,14-4,28.3c-6.7,7.9-13,10.3-17.3,10.9V95.1L277,95.1z"/>
			<path class="st19" d="M327.9,131.5c-0.5,0-0.9,0.4-0.9,0.9s0.4,0.9,0.9,0.9s0.9-0.4,0.9-0.9S328.3,131.5,327.9,131.5z"/>
			<path class="st13" d="M286.5,153.4c0,0,1.9,1.9,1.8,2.3c-0.1,0.3-2.6,3.8-3.3,4.9c-0.8,1.1-1.6,1.3-1.6,1.3s-2.6-3.5-3.6-4.2
				c-0.8-0.6-2.3-1-2.7-1.1v-1.5c0.5,0.1,2.6,0.8,3.5,1.3c1,0.6,3.1,3.4,3.1,3.4s3-4.2,3.1-4.5C286.8,155.1,286.5,153.3,286.5,153.4
				L286.5,153.4z"/>
			<path class="st20" d="M318.2,115.7c-0.9,8.6-5,16.6-14.1,19.2c-4.9,1.4-7.5-1.1-8.4-2.5s-1-2.4-1-2.4s3,2.7,4.4,2.9
				C309.3,134.5,314.6,123.1,318.2,115.7L318.2,115.7z"/>
			<path class="st8" d="M296,176.4c0,0,0.3-2.9-0.3-3.9c-0.7-1-3.1-0.8-3.2,2.1s-0.1,3.5-0.1,3.5s1.3,0.3,2.3-0.1
				C295.6,177.5,296,176.4,296,176.4L296,176.4z"/>
			<path class="st8" d="M290.5,178.9c0,0,0.3-2.9-0.4-3.9c-0.7-1-3.1-0.8-3.2,2.1c-0.1,2.9-0.1,3.5-0.1,3.5s1.3,0.3,2.3-0.1
				C290.1,180.1,290.5,178.9,290.5,178.9L290.5,178.9z"/>
			<path class="st8" d="M285.1,180.1c0,0,0.3-2.9-0.4-3.9c-0.7-1-3.1-0.8-3.2,2.1s-0.1,3.5-0.1,3.5s1.3,0.3,2.3-0.1
				C284.7,181.2,285.1,180.1,285.1,180.1L285.1,180.1z"/>
			<path class="st13" d="M296.2,182.8c0,0,0.3,2-0.3,2.9s-2.5,1.2-2.6-0.9c-0.1-2.1-0.1-2.5-0.1-2.5s1.1-0.5,1.9-0.3
				C295.9,182.1,296.2,182.8,296.2,182.8L296.2,182.8z"/>
			<path class="st13" d="M290.6,184c0,0,0.3,2.4-0.3,3.5c-0.7,1-2.9,1.4-3.1-1s-0.1-3-0.1-3s1.3-0.6,2.2-0.4
				C290.2,183.1,290.6,184,290.6,184L290.6,184z"/>
			<path class="st13" d="M285,184.5c0,0,0.3,2.6-0.4,3.7c-0.7,1.1-3.1,1.5-3.3-1.1c-0.1-2.6-0.1-3.2-0.1-3.2s1.4-0.6,2.4-0.4
				C284.6,183.6,285,184.5,285,184.5L285,184.5z"/>
			<path class="st11" d="M304.4,26.5c1.4,0.9,1.7,2.9,1.7,2.9c-0.7,1.1-1.8,1.9-3.1,1.8c-1.7-0.1-4.2-1.9-12.3-3.2
				c-7.4-1.1-12.8-0.8-13.6-0.7v-5.1C293,21.8,303.1,25.8,304.4,26.5L304.4,26.5z"/>
			<path class="st8" d="M351.1,50.1l0.2-3.8c0.8,0.9,1.4,1.8,2,2.7c0.8,1.2,1.7,2.4,2.9,3.8l-0.2,3.3c-2.2-1.9-3.6-3.8-4.8-5.6
				C351.2,50.3,351.1,50.2,351.1,50.1L351.1,50.1z"/>
			<path class="st9" d="M346,41.9c-0.6,0.3-1,0.9-1.3,1.8c0,0.1-0.1,0.1-0.1,0.3c-2.6-1.6-3.7-1.5-3.7-1.5c-0.7,0.1-1.3-0.4-1.3-1.1
				c-0.1-0.7,0.4-1.3,1.1-1.3C340.7,40,342.4,39.9,346,41.9L346,41.9z"/>
			<path class="st9" d="M335.7,34.5c-2.1,0.3-2.9,0.7-2.9,0.8c-0.7,0.3-1.5,0-1.7-0.7c-0.3-0.7,0-1.5,0.7-1.7c0,0,1.1-0.5,3.6-0.9
				C335,32.7,335,33.6,335.7,34.5z"/>
			<path class="st8" d="M341.3,33.8l-1.7-2.5c0.8-0.1,1.7-0.1,2.6-0.1c1.4-0.1,2.6,0,3.8,0.1l1.8,2.8c-1.4-0.2-3.2-0.3-5.4-0.2
				C342.1,33.8,341.7,33.8,341.3,33.8L341.3,33.8z"/>
			<path class="st21" d="M361,75.8c1.2,1.7,2.6,3.4,4.3,4.9c0.2,0.2,0.4,0.3,0.6,0.6c0,0.3,0,0.6,0.1,0.9c0.1,1.3,0.3,2.4,0.5,3.3
				c-1-0.8-2.2-1.6-3.2-2.5c-0.8-0.7-1.5-1.4-2.2-2.2C360.9,78.8,360.9,77.1,361,75.8L361,75.8z"/>
			<path class="st22" d="M363.3,144.2c-0.3-1.3-1.7-2.2-3-1.8c-1.3,0.3-2.2,1.7-1.8,3c0,0.1,3.2,12.7,8.1,22.2
				c4.9,9.6,9.6,13.9,9.6,13.9c1,0.9,2.6,0.9,3.5-0.1s0.9-2.6-0.1-3.5c0,0-4.1-3.8-8.6-12.5C366.4,156.5,363.3,144.3,363.3,144.2
				L363.3,144.2z"/>
			<path class="st22" d="M354.3,148.2c-0.5-1.3-1.9-1.9-3.2-1.4c-1.3,0.5-1.9,1.9-1.4,3.2c0,0,4,9.9,5.2,17.8
				c0.8,5.4,1,7.8,1.1,10.2c0.1,1.3,0.1,2.5,0.3,4.2c0.6,5.4,2,8.4,2,8.4c0.6,1.2,2.1,1.7,3.3,1c1.2-0.6,1.7-2.1,1-3.3
				c0,0-1-2-1.5-6.5c-0.1-1.5-0.2-2.8-0.3-4c-0.1-2.6-0.3-5.2-1.2-10.7C358.5,158.6,354.4,148.2,354.3,148.2L354.3,148.2z"/>
			<path class="st22" d="M345.7,151.5c0-1.4-1.1-2.5-2.4-2.5c-1.4,0-2.5,1.1-2.5,2.4c0,0.1-0.2,17.8,1.3,28.5
				c1.6,10.9,4.5,17.4,4.5,17.4c0.6,1.3,2,1.8,3.3,1.3c1.3-0.6,1.8-2,1.3-3.3c0,0-2.6-5.8-4.1-16.1
				C345.4,168.8,345.6,151.5,345.7,151.5L345.7,151.5z"/>
			<path class="st22" d="M336,159c0.3-1.3-0.6-2.6-1.9-2.9s-2.6,0.6-2.9,1.9c-0.2,1-0.7,8.1-0.6,15.9c0.1,4.7,0.3,9.7,0.9,13.9
				c1.5,11.1,3.3,16.6,3.3,16.6c0.4,1.3,1.7,2.1,3.1,1.7s2.1-1.7,1.7-3.1c0,0-1.6-5.2-3.1-15.8c-0.6-4-0.8-8.8-0.8-13.2
				c-0.1-7.4,0.3-13.9,0.5-14.8H336V159z"/>
			<path class="st22" d="M326,163.6c-0.3-1.3-1.6-2.2-2.9-1.9s-2.2,1.6-1.9,2.9c0,0.1,3.1,13.5-0.7,25.1
				c-3.7,11.4-11.7,16.6-11.7,16.6c-1.1,0.8-1.5,2.3-0.7,3.4c0.8,1.1,2.3,1.5,3.4,0.7c0,0,9.5-6.2,13.7-19.3
				C329.5,178.2,326.1,163.5,326,163.6L326,163.6z"/>
			<path class="st16" d="M387.2,182.8L387.2,182.8c-0.7-1.1-1.8-1.8-3.1-1.9c0.6,1.4,0.1,3-1.2,3.8l-3.1,1.8c-1.3,0.8-3,0.4-3.9-0.8
				c-0.5,1.1-0.5,2.5,0.2,3.6l0,0c1.1,1.9,3.6,2.6,5.4,1.5l4.2-2.4C387.6,187.2,388.3,184.7,387.2,182.8L387.2,182.8z"/>
			<path class="st18" d="M381.5,190.7c-1.9,1.1-4.4,0.5-5.4-1.5c-0.7-1.1-0.7-2.5-0.2-3.6c0.9,1.2,2.6,1.6,3.9,0.8l1.8-1
				c0.9,0.9,1.7,2,2.4,3.2c0.1,0.1,0.2,0.3,0.3,0.5L381.5,190.7z"/>
			<path class="st16" d="M367.3,194.5L367.3,194.5c-0.3-1.1-1.1-1.9-2.1-2.4c0.2,1.3-0.6,2.6-1.9,2.9l-3.1,0.8
				c-1.3,0.3-2.6-0.4-3.1-1.6c-0.7,0.8-1,1.9-0.7,3.1l0,0c0.5,1.9,2.4,3,4.2,2.5l4.1-1C366.6,198.3,367.8,196.4,367.3,194.5
				L367.3,194.5z"/>
			<path class="st18" d="M360.7,199.8c-1.9,0.5-3.8-0.6-4.2-2.5c-0.3-1.1,0-2.2,0.7-3.1c0.5,1.3,1.8,1.9,3.1,1.6l1.8-0.5
				c0.5,1,1,2.1,1.3,3.3c0.1,0.1,0.1,0.3,0.1,0.4L360.7,199.8L360.7,199.8z"/>
			<path class="st16" d="M355.8,201.6L355.8,201.6c-0.3-1.1-1.1-1.9-2.1-2.4c0.2,1.3-0.6,2.6-1.9,2.9l-3.1,0.8
				c-1.3,0.3-2.6-0.4-3.1-1.6c-0.7,0.8-1,1.9-0.7,3.1l0,0c0.5,1.9,2.4,3,4.2,2.5l4.1-1C355.1,205.3,356.3,203.4,355.8,201.6
				L355.8,201.6z"/>
			<path class="st18" d="M349.2,206.9c-1.9,0.5-3.8-0.6-4.2-2.5c-0.3-1.1,0-2.2,0.7-3.1c0.5,1.3,1.8,1.9,3.1,1.6l1.8-0.5
				c0.5,1,1,2.1,1.3,3.3c0.1,0.1,0.1,0.3,0.1,0.4L349.2,206.9L349.2,206.9z"/>
			<path class="st16" d="M342.8,209.5L342.8,209.5c-0.1-1.1-0.8-2.1-1.8-2.6c0.1,1.3-0.9,2.5-2.2,2.6l-3.1,0.4
				c-1.3,0.2-2.6-0.7-2.9-1.9c-0.8,0.8-1.2,1.8-1,3l0,0c0.3,1.9,2,3.2,3.9,3l4.2-0.6C341.7,213.2,343,211.5,342.8,209.5L342.8,209.5
				z"/>
			<path class="st18" d="M335.7,214c-1.9,0.3-3.7-1-3.9-3c-0.1-1.1,0.3-2.2,1-3c0.3,1.3,1.5,2.2,2.9,1.9l1.8-0.3
				c0.4,1,0.7,2.2,0.9,3.4c0,0.1,0.1,0.3,0.1,0.5L335.7,214L335.7,214z"/>
			<path class="st21" d="M388.3,201.6c0,6.2-4.9,12.4-5.7,12.4c-0.8,0.1-0.3-1.9,1.1-4.2c1.4-2.4,2.7-5.6,2.2-9.5
				c-0.6-3.9-2.2-7.4-2.2-7.4l1.5-4.4C387.5,193,388.3,196.1,388.3,201.6z"/>
			<path class="st21" d="M365.4,201.9c0,0-0.1,13.8-1.9,21.8c-1.9,8-5.4,9.5-7,10.2c-1.7,0.6,1-5.7,2.3-11.7s0.9-14.2,1.3-15.8
				s2.8-5.3,3.9-5.5C365,200.7,365.3,202,365.4,201.9L365.4,201.9z"/>
			<path class="st21" d="M353.4,209.6c0,0-0.6,12.6-3.3,19.6c-2.7,7-3.6,8.2-6,9s2.5-14.8,2.9-19.9c0.3-5.2,2.6-8.2,4.2-8.9
				C352.9,208.6,353.5,209.6,353.4,209.6L353.4,209.6z"/>
			<path class="st21" d="M339.1,217c0,0,1-0.1,1.4,2c0.3,2.1-1.5,13.5-7,19.6s-9.7,7.7-11.9,7c-2.2-0.6,2.4-4,6.8-9.7
				s6.3-13.9,7.1-15.7C336.2,218.3,339.1,217,339.1,217L339.1,217z"/>
			<path class="st3" d="M321.1,219.6c0,0-2.9,8.1-7,10.9c-4.2,2.7-11.1,2.3-12.7,1.3c-1.5-1,14.9-14.8,15.7-15
				c0.9-0.2,2.6,0.3,3.4,1C321.3,218.6,321.1,219.7,321.1,219.6L321.1,219.6z"/>
			<path class="st11" d="M375.2,180.5c-1.6-1.7-5.1-5.9-8.6-12.9c-4.2-8.2-7.2-18.8-7.9-21.5c0.7-1.5,2.4-1.3,2.4-1.3
				s4,15.5,8.5,23.4s8.6,11.9,8.6,11.9s0,0-1.1,0.3C376.6,180.6,375.9,180.6,375.2,180.5L375.2,180.5z"/>
			<path class="st11" d="M352.7,149.3c0.1,0.3,3.8,11.5,4.8,17.1s1.3,15.7,1.7,18.5c0.4,2.6,1.1,3.9,1.1,3.9s-0.6,1.4-2.6,0.6
				c-0.5-1.3-1.1-3.7-1.5-7c-0.1-1.7-0.3-3-0.3-4.2c-0.1-2.4-0.3-4.8-1.1-10.2c-1-6.3-3.7-13.9-4.7-16.7c0.2-0.4,0.5-0.9,0.9-1.3
				C351.9,148.9,352.5,148.9,352.7,149.3L352.7,149.3z"/>
			<path class="st11" d="M343.3,152.3c0,0,0.3,23.2,1.5,30.6c1.2,7.3,4,13.2,4,13.2s0.1,0.6-1.5,0.1c-0.6-0.2-1.1-0.5-1.5-0.8
				c-1-2.7-2.6-8-3.7-15.3c-1.4-9.6-1.4-24.8-1.3-27.9C341.9,151.2,343.3,152.3,343.3,152.3L343.3,152.3z"/>
			<path class="st11" d="M333.8,158.4c0,0-1.5,14.3,0,26.9c1.5,12.7,3.1,17.6,3.1,17.6s-0.9,1.1-2.4,0.2c-0.6-2.1-1.8-7.2-2.9-15.5
				c-0.6-4.2-0.8-9.2-0.9-13.9c-0.1-5.9,0.2-11.3,0.4-14.1c0.4-0.4,0.8-0.8,1.2-1C333.1,158.1,333.9,158.3,333.8,158.4L333.8,158.4z
				"/>
			<path class="st11" d="M326,163.6c0,0.1,3.3,14.8-0.8,27.6c-4.2,13.1-13.6,19.2-13.7,19.3c-1.1,0.8-2.6,0.4-3.4-0.7
				c-0.8-1.1-0.4-2.6,0.7-3.4c0,0,8-5.2,11.7-16.6c3.8-11.6,0.7-25.1,0.7-25.1c-0.3-1.3,0.6-2.6,1.9-2.9
				C324.4,161.5,325.7,162.3,326,163.6L326,163.6z"/>
			<path class="st11" d="M328.3,235.9c3.5-4.5,5.4-10.7,6.4-13.9c3.7-2.2,3.4,1.4-1.9,11.7c-5.2,10.3-11.8,11.7-11.8,11.7
				C320.1,244.3,324.2,241,328.3,235.9L328.3,235.9z"/>
			<path class="st11" d="M343.9,238.1c-1.7-0.6,2.8-15,3.1-19.9c0.1-1.3,0.3-2.5,0.6-3.6c3-3,3.6-0.9,2.2,6.8
				C348.5,229.1,343.9,238.1,343.9,238.1L343.9,238.1L343.9,238.1z"/>
			<path class="st11" d="M358.7,222.2c1.3-6,0.9-14.2,1.3-15.8c1.9-2.8,3.8-1.9,2.4,10s-6,17.5-6,17.5
				C354.7,234.5,357.3,228.2,358.7,222.2L358.7,222.2z"/>
			<path class="st8" d="M290.7,60.2v8.6c-4.2-0.2-8.9-0.1-12.3,0.1v-7.2c0,0-0.1-0.8,0.5-0.8c0.6-0.1,3.8,1.6,7.1,1.3
				C289.4,61.8,290.7,60.2,290.7,60.2z"/>
			<path class="st5" d="M277,94.1c1.7,0,3.1,1.4,3.1,3.1s-1.4,3.1-3.1,3.1s-3.1-1.4-3.1-3.1C274,95.5,275.4,94.1,277,94.1z"/>
			<path class="st8" d="M256.2,157.6c-0.1,2.9,0.3,8.8,0.3,8.8s1.9,2.6,5.3,4.7c0.4-1.4,1-3.6,1.4-3.4s0.8,3.1,1.1,4.7
				c0.2,0.1,0.4,0.1,0.6,0.3c1.8,0.6,3.8,1,5.6,1.3c0.4-1.5,1.3-4.5,1.5-4.5c0.3,0.1,0.9,3.3,1.3,4.7c1.8,0.1,3.2,0.1,3.6,0.1
				s1.7,0,3.6-0.1c0.4-1.4,1-4.7,1.3-4.7c0.3-0.1,1.1,2.9,1.5,4.5c1.8-0.3,3.8-0.7,5.6-1.3c0.2-0.1,0.4-0.1,0.6-0.3
				c0.3-1.6,0.7-4.5,1.1-4.7c0.3-0.1,1,2,1.4,3.4c3.5-2.1,5.3-4.7,5.3-4.7s0.5-6,0.3-8.8c-0.1-1.5-0.1-2.3-0.2-2.8
				c0,0-1.5,6.8-2.9,7.9c-1.4,1.2-2.7,2.3-3.1,2.2c-0.5-0.1-0.8-0.8-1.3-0.7c-0.6,0.1-1.1,1.8-1.8,2.4c-0.7,0.6-4.8,1.8-5.4,1.9
				c-0.6,0.1-1-1.1-1.3-1.1s-1,1.3-1.7,1.4c-0.6,0.2-3.2,0.3-3.2,0.3s-2.6-0.1-3.2-0.3s-1.4-1.4-1.7-1.4c-0.3,0-0.8,1.2-1.3,1.1
				c-0.6-0.1-4.6-1.3-5.4-1.9c-0.7-0.6-1.3-2.3-1.8-2.4c-0.6-0.1-0.8,0.6-1.3,0.7c-0.5,0.1-1.7-1-3.1-2.2s-2.9-7.9-2.9-7.9
				C256.4,155.2,256.3,156,256.2,157.6z"/>
			<path class="st11" d="M274.4,242.6v0.6c0.8,0.3,1.7,0.4,2.6,0.4s1.8-0.1,2.6-0.4v-0.6c0,0-0.1-1.4-0.8-1.8
				c-0.6-0.4-1.9-0.5-1.9-0.5s-1.3,0.1-1.9,0.5S274.4,242.6,274.4,242.6z M274.4,245.8v3.4c0.8,0.3,1.7,0.4,2.6,0.4s1.8-0.1,2.6-0.4
				v-3.4c-0.8,0.3-1.7,0.4-2.6,0.4C276.1,246.3,275.2,246.1,274.4,245.8z M274.4,252v3.4c0.8,0.3,1.7,0.4,2.6,0.4s1.8-0.1,2.6-0.4
				V252c-0.8,0.3-1.7,0.4-2.6,0.4S275.2,252.3,274.4,252z M274.4,258.1v3.4c0.8,0.3,1.7,0.4,2.6,0.4s1.8-0.1,2.6-0.4v-3.4
				c-0.8,0.3-1.7,0.4-2.6,0.4S275.2,258.4,274.4,258.1z M274.4,264.2v3.4c0.8,0.3,1.7,0.4,2.6,0.4s1.8-0.1,2.6-0.4v-3.4
				c-0.8,0.3-1.7,0.4-2.6,0.4S275.2,264.5,274.4,264.2z M274.4,270.4v3.4c0.8,0.3,1.7,0.4,2.6,0.4s1.8-0.1,2.6-0.4v-3.4
				c-0.8,0.3-1.7,0.4-2.6,0.4S275.2,270.6,274.4,270.4z M274.4,276.5v3.4c0.8,0.3,1.7,0.4,2.6,0.4s1.8-0.1,2.6-0.4v-3.4
				c-0.8,0.3-1.7,0.4-2.6,0.4S275.2,276.8,274.4,276.5z M274.4,282.6v3.4c0.8,0.3,1.7,0.4,2.6,0.4s1.8-0.1,2.6-0.4v-3.4
				c-0.8,0.3-1.7,0.4-2.6,0.4S275.2,282.9,274.4,282.6z M274.4,288.7v3.4c0.8,0.3,1.7,0.4,2.6,0.4s1.8-0.1,2.6-0.4v-3.4
				c-0.8,0.3-1.7,0.4-2.6,0.4C276.1,289.2,275.2,289,274.4,288.7z M274.4,294.9v3.4c0.8,0.3,1.7,0.4,2.6,0.4s1.8-0.1,2.6-0.4v-3.4
				c-0.8,0.3-1.7,0.4-2.6,0.4S275.2,295.1,274.4,294.9z M274.4,301v3.4c0.8,0.3,1.7,0.4,2.6,0.4s1.8-0.1,2.6-0.4V301
				c-0.8,0.3-1.7,0.4-2.6,0.4S275.2,301.3,274.4,301z M274.4,307.1v3.4c0.8,0.3,1.7,0.4,2.6,0.4s1.8-0.1,2.6-0.4v-3.4
				c-0.8,0.3-1.7,0.4-2.6,0.4S275.2,307.4,274.4,307.1z M274.4,313.2v3.4c0.8,0.3,1.7,0.4,2.6,0.4s1.8-0.1,2.6-0.4v-3.4
				c-0.8,0.3-1.7,0.4-2.6,0.4C276.1,313.7,275.2,313.5,274.4,313.2z M274.4,319.4v3.4c0.8,0.3,1.7,0.4,2.6,0.4s1.8-0.1,2.6-0.4v-3.4
				c-0.8,0.3-1.7,0.4-2.6,0.4S275.2,319.6,274.4,319.4z M274.4,325.5v3.4c0.8,0.3,1.7,0.4,2.6,0.4s1.8-0.1,2.6-0.4v-3.4
				c-0.8,0.3-1.7,0.4-2.6,0.4S275.2,325.8,274.4,325.5z M274.4,331.6v3.4c0.8,0.3,1.7,0.4,2.6,0.4s1.8-0.1,2.6-0.4v-3.4
				c-0.8,0.3-1.7,0.4-2.6,0.4S275.2,331.9,274.4,331.6z M274.4,337.8v1.8c0,0,0.1,0.6,1,1.3c0.8,0.6,1.7,0.7,1.7,0.7
				s0.8-0.1,1.7-0.7c0.8-0.6,1-1.3,1-1.3v-1.8c-0.8,0.3-1.7,0.4-2.6,0.4C276.1,338.2,275.2,338,274.4,337.8z"/>
			<path class="st11" d="M251.8,242.3c0,0,6.5,4,8.3,11.1c1.7,7.1,1.2,39.8,1.2,39.8s-0.1,2,1.7,2.2c1.9,0.1,1.9-2.3,1.9-2.3
				l0.1-37.7c0,0,0-4.9-3.7-10c-3.7-5.2-8.4-7.6-8.4-7.6s-0.9-0.5-1.9,0.2s-1.2,2-0.7,2.8C250.9,241.6,251.8,242.3,251.8,242.3
				L251.8,242.3z"/>
			<path class="st18" d="M263.5,300.4c3.5,0,6.3,2.9,6.3,6.6c0,3.6-2.8,6.6-6.3,6.6s-6.3-2.9-6.3-6.6
				C257.2,303.4,260,300.4,263.5,300.4z"/>
			<path class="st16" d="M266.2,313c-0.8,0.4-1.7,0.6-2.7,0.6c-3.5,0-6.3-2.9-6.3-6.6c0-0.6,0.1-1.1,0.2-1.6
				c0.8-0.4,1.7-0.6,2.7-0.6c3.5,0,6.3,2.9,6.3,6.6C266.4,311.9,266.3,312.5,266.2,313z"/>
			<path class="st11" d="M302.3,242.3c0,0-6.5,4-8.3,11.1c-1.7,7.1-1.2,39.8-1.2,39.8s0.1,2-1.7,2.2c-1.9,0.1-1.9-2.3-1.9-2.3
				l-0.1-37.7c0,0,0-4.9,3.7-10c3.7-5.2,8.4-7.6,8.4-7.6s0.9-0.5,1.9,0.2s1.2,2,0.7,2.8C303.2,241.6,302.4,242.3,302.3,242.3
				L302.3,242.3z"/>
			<path class="st18" d="M290.6,300.4c-3.5,0-6.3,2.9-6.3,6.6c0,3.6,2.8,6.6,6.3,6.6s6.3-2.9,6.3-6.6
				C296.9,303.4,294.1,300.4,290.6,300.4z"/>
			<path class="st16" d="M287.9,313c0.8,0.4,1.7,0.6,2.7,0.6c3.5,0,6.3-2.9,6.3-6.6c0-0.6-0.1-1.1-0.2-1.6c-0.8-0.4-1.7-0.6-2.7-0.6
				c-3.5,0-6.3,2.9-6.3,6.6C287.7,311.9,287.8,312.5,287.9,313z"/>
			<path class="st8" d="M277,176.3L277,176.3c1.3,0,2.2,1.2,2.2,2.6v2.9c-0.6,0.6-1.4,0.9-2.2,0.9l0,0c-0.8,0-1.6-0.3-2.2-0.9v-2.9
				C274.8,177.4,275.8,176.3,277,176.3z"/>
			<path class="st13" d="M277,189.4L277,189.4c1,0,1.9-1,1.9-2.3v-2.4c-0.6-0.5-1.2-0.8-1.9-0.8l0,0c-0.7,0-1.4,0.3-1.9,0.8v2.4
				C275.1,188.3,275.9,189.4,277,189.4z"/>
			<path class="st1" d="M176.1,153.5c0,0,4.7-4.3,11.1-2.9c6.5,1.3,22.3,3.4,31.1,11.3c8.8,7.9,10.7,11.8,16.8,15.8
				c0.5,0.3,1.3,0.7,2.2,1.1V161l-6.8-5.4l-21.3-10.2l-0.8-0.3L208,145l-21.2-8.4L176.1,153.5L176.1,153.5z M315.7,179.2
				c1.4-0.6,2.5-1.2,3.2-1.7c6.3-4,8.1-7.9,16.8-15.8c8.8-7.9,24.6-10,31.1-11.3s11.1,2.9,11.1,2.9l-8.5-13.3l-1.9,0.5l-6.8-1.6l0,0
				l-9.1,3.6l-6,2.4l-4.8,1.9c-1,0.4-1.8,0.8-2.4,1.3c-2.2,1.3-6.5,4.9-7.7,5.6c-1.2,0.6-6.1,1.7-9.1,2.6c-2.9,1-6.5,7.7-6.5,7.7
				L315.7,179.2L315.7,179.2z"/>
			<path class="st3" d="M161,189.7c0,0,0.5-1.5,0.8-2.4c0.3-0.8,0.3-0.8,0.3-0.8s-1.2-2.6-0.2-6c1-3.3,4.5-4.5,5.9-4.6
				c1.5-0.1,1.5-0.1,1.5-0.1s7.2-7.9,10.2-14.6c2.9-6.7,3.8-10.3,3.8-10.3s-36.6,20.5-38.9,22.3c-2.3,1.8-9.9,12.4-9.9,12.4l0,0
				c-3.3,4.1-5.8,8.2-5.8,8.2l2.6,9.6c0,0,2.6,0.9,7.9,10.5s4.7,17.5,4.7,17.5s-3.7-6-7.4-9.5s-6.3-4-6.3-4s0,12.7,0.6,15.2
				s2.6,6.2,2.6,8.6c0,2.5,0,17.2,0,17.2l2.9,1.4c0,0,2.3-2.5,2.8-2.8s2.6-0.3,2.6-0.3s0.4-2.2,1-2.9c0.6-0.8,1.7-1.9,1.7-1.9
				l1.1-0.1c0,0-1-4.7-0.6-6.3c0.4-1.7,0.6-8.5,3.1-13.2c1.5-2.8,4.7-10,6.3-12.2c2.7-3.8,7,12.6,7.4,13.7c0.3,1,0.6,3.8,1.7,8.1
				c1,3.6,2.6,7.2,3.4,10.2c0.8,3,0.7,7,0.7,8.1c0.1,3.7,0.1,7.1,0.1,7.1s6.5-11.1,12.6-16.9s8.8-7.1,8.9-6.3
				c0.1,0.8-8.8,20-9.5,24.9c-0.6,5-0.6,5-0.6,5s4.3,10.7,3.8,23.6c-0.6,13-9.7,29.5-9.7,29.5s6.2-4,10-9.3c3.8-5.2,4.5-7.7,4.5-7.7
				s17.1,16,37.5,23.3s39.7,7.6,39.7,7.6s0.9-3.8,1-8s0.1-10.4,0.1-10.4s-13.2-1.5-16.7-9.7c-3.4-8.3,3.1-16.8,3.1-16.8v-35
				c0,0-1.2-4.3-4.6-7.7c-0.1-0.1-0.4-0.3-0.8-0.6l-5.6-3.8c0,0-2.7,3.4-11.6,2.1c-8.8-1.3-14.2-8.8-14.2-8.8s-0.6,1.6-5.5,2.2
				c-4.9,0.6-7.7-2.9-7.7-2.9s0,0-1.7,0.1s-11.3-0.6-14.6-11.3c-3.3-10.6-3.2-24.5-3.2-24.5s-0.8-0.3-3.5-3.1l-3.8-2.8
				c-1.5-0.3-2.4,0.1-2.4,0.1s-1,4.9,0.2,7.2s3.4,5.7,4,9s1.4,7-0.8,11.1c-2.2,4.2-7.4,1.7-7.7-0.6c-0.2-2.4,1.1-3.2-0.6-7.9
				c-1.7-4.7-6.3-6.5-8.3-14.4C159,199.6,160.1,193.2,161,189.7L161,189.7z"/>
			<path class="st21" d="M292.8,284.8c0-9.3,0.1-23.5,1-29.7c-1.5-0.5-3-0.9-4.6-1.3c-0.1,1-0.1,1.6-0.1,1.6l0.1,30.4
				C290.4,285.5,291.7,285.2,292.8,284.8L292.8,284.8z"/>
			<path class="st21" d="M265,285.8l0.1-30.4c0,0,0-0.6-0.1-1.6c-1.6,0.3-3.1,0.8-4.6,1.3c0.9,6.2,1,20.5,1,29.7
				C262.6,285.2,263.7,285.5,265,285.8L265,285.8z"/>
			<path class="st10" d="M81.5,273.3l0.5,5.8c0.3,3.4,0.6,6.8,0.8,10.2l1.9-2.6c-0.3-3.4-0.6-6.8-0.8-10.2l-0.5-5.8L81.5,273.3z"/>
			<path class="st11" d="M73.5,265.4c0.9,4.1,4.1,7.1,7.9,8l1.9-2.6c-3.8-0.9-7-3.9-7.9-8c-0.6-2.6-0.1-5.1,1-7.2
				C73.9,258,72.7,261.7,73.5,265.4L73.5,265.4z"/>
			<path class="st10" d="M56.4,244.3c-1.3-2.1-5.8-11.3-5.8-11.3l-1.6,1.8l-3.4,0.3l-4,3.4l-2.6-1c0,0,6.7,11.3,7.6,11.6
				c0.9,0.3,8.1,2.2,11.2-2.6C57.8,246.4,57.6,246.4,56.4,244.3L56.4,244.3z"/>
			<path class="st10" d="M62.6,221.8c1.5,6.3,4.7,19.6,6.4,20.3c2,0.8,8.8-3.1,9.8-3.7c-0.6,0-2.4-4-3.1-5.6
				c-0.7-1.7-0.6-3.1-1.1-4.5c-0.6-1.4-5.6-9.1-5.6-9.1l-1,2l-2.9-1.4l-2.1,2.3L62.6,221.8L62.6,221.8z"/>
			<path class="st10" d="M87.2,216c0,0,2.3,17.3,3,19.1c0.6,1.7,11.3,2.5,12.3-0.1c-0.8,0-1.9-7.7-1.9-7.7l-3.7-13.8l-3.3,1.6
				l-3.3-2.2C90.2,212.9,87.8,215.8,87.2,216L87.2,216z"/>
			<path class="st10" d="M114.4,214.2c0,0-2.3,17.8-1.5,19.6c0.9,1.9,8.7,2.2,10.4-0.8c-0.4-1.6-1.3-19-1.3-19l-3.2,1.1l-0.9-1.7
				L114.4,214.2L114.4,214.2z"/>
			<path class="st0" d="M139.8,191.6l0.6,4.5c0,0,3.3,3.9,5.2,8s1.6,6.8,2.4,6.6c0.8-0.2,3.6-4.7,4.7-5.6c1.2-0.9,1.4-0.6,1.5-1
				c0.1-0.5-0.9-1.7-0.3-8.8c0.1-2,1.1-4.9,2.5-8c-0.3-1-0.4,1.8-0.4-3c0-3.7,1.8-6.9,4.7-8.9c3.1-2.2,2.4-0.6,4.7-4.2
				c0.6-0.8,4.4-5.9-0.7-3.1c-4.1,2.2-10.4,6.1-15.6,10.6C146.6,180.6,139.4,188.4,139.8,191.6L139.8,191.6z"/>
			<path class="st0" d="M188.5,269.7c0,0,4.2,9.4,4.2,19.3c0,9.8-1.5,11.3-0.4,12.9c1.1,1.5,23.9,19,36.1,23.6
				c12.3,4.6,13.2-3.7,11.8-5.9c-1.3-2.2-3.7-7.4-4.2-11.1c-0.4-3.7-15.7-7.9-15.7-9.6s23.9-1.1,25.4-2.2s-11.8-7.2-11.8-7.2
				s-0.2-10.1,0-18.2s-0.3-11.1-1-11.3c-0.7-0.3-7.5,0.3-12.1-1.7c-4.6-1.9-5.5-3.8-6.7-3.8s-6.7,1.7-9.8,0.4
				c-3.2-1.3-4.9-3.4-5.9-3.6c-1-0.2-4,0.4-4,0.4l-5.7,18L188.5,269.7z"/>
		</g>
	</g>
</g>
<path class="st4" d="M302.7,472.3C302.7,472.3,302.7,472.3,302.7,472.3c0-0.6-0.2-1.2-0.6-1.6c0,0,0,0-0.1-0.1c0,0-0.1-0.1-0.1-0.1
	c0,0-0.1-0.1-0.1-0.1c0,0,0,0-0.1,0l-23-13.3c-0.1,0-0.1-0.1-0.2-0.1c-0.3-0.2-0.7-0.2-1.1-0.2c-0.2,0-0.4,0.1-0.6,0.1
	c-0.1,0-0.3,0.1-0.4,0.2l-23,13.3c0,0,0,0-0.1,0c0,0,0,0-0.1,0c0,0,0,0,0,0c0,0-0.1,0.1-0.1,0.1c0,0-0.1,0-0.1,0.1
	c-0.1,0-0.1,0.1-0.2,0.2c0,0,0,0,0,0c-0.3,0.4-0.5,0.9-0.5,1.4c0,0,0,0,0,0c0,0,0,0,0,0.1l0,26.5c0,0.8,0.5,1.5,1.1,1.9l23,13.3
	c0,0,0,0,0.1,0c0,0,0.1,0,0.1,0.1c0,0,0.1,0,0.1,0c0.1,0,0.1,0,0.2,0.1c0,0,0.1,0,0.1,0c0.1,0,0.1,0,0.2,0c0,0,0.1,0,0.1,0
	c0.1,0,0.2,0,0.3,0s0.2,0,0.3,0c0,0,0.1,0,0.1,0c0.1,0,0.1,0,0.2,0c0,0,0.1,0,0.1,0c0.1,0,0.1,0,0.2-0.1c0,0,0.1,0,0.1,0
	c0,0,0.1,0,0.1-0.1c0,0,0,0,0.1,0l23-13.3c0.7-0.4,1.1-1.1,1.1-1.9L302.7,472.3C302.7,472.3,302.7,472.3,302.7,472.3z M261.3,471.4
	l15.7-9c0.3-0.2,0.7-0.2,1,0l15.7,9c0.7,0.4,0.7,1.4,0,1.7l-15.7,9c-0.3,0.2-0.7,0.2-1,0l-15.7-9
	C260.7,472.8,260.7,471.8,261.3,471.4z M274.8,505.8c0,0.8-0.8,1.3-1.5,0.9l-15.6-9c-0.3-0.2-0.5-0.5-0.5-0.9v-18.1
	c0-0.8,0.8-1.3,1.5-0.9l15.6,9c0.3,0.2,0.5,0.5,0.5,0.9V505.8z M297.9,496.8c0,0.4-0.2,0.7-0.5,0.9l-15.6,9
	c-0.7,0.4-1.5-0.1-1.5-0.9v-18.1c0-0.4,0.2-0.7,0.5-0.9l15.6-9c0.7-0.4,1.5,0.1,1.5,0.9V496.8z"/>
</svg>
